<svg width="500" height="500" xmlns="http://www.w3.org/2000/svg">

 <g>
  <title>background</title>
  <rect fill="none" id="canvas_background" height="130" width="130" y="-1" x="-1"/>
 </g>
 <g>
  <title>Layer 1</title>
  <g id="responsive-layout-screen">
   <g id="svg_1">
    <path id="svg_2" fill="#F4F1F0" d="m250,0c-138.069,0 -250,111.925 -250,250c0,138.065 111.931,250 250,250s250,-111.935 250,-250c0,-138.075 -111.931,-250 -250,-250z"/>
    <g id="_x33_9">
     <path id="svg_3" fill="#675F58" d="m293.544,345.508l-81.478,0l0,-14.279l81.478,0l0,14.279zm-81.267,1.866l-3.542,7.596c0,0 0.369,2.225 1.85,2.225c1.481,0 83.708,0 85.184,0c1.486,0 1.486,-2.225 1.486,-2.225l-3.543,-7.596l-81.435,0zm171.056,-197.157l0,148.361l0,3.483l0,17.351c0,4.568 -3.331,8.322 -7.405,8.322l-251.85,0c-4.08,0 -7.411,-3.754 -7.411,-8.322l0,-17.351l0,-3.483l0,-148.361c0,-4.08 3.331,-7.411 7.411,-7.411l251.85,0c4.074,0 7.405,3.331 7.405,7.411zm-15.489,11.024l-236.284,0l0,133.409l236.284,0l0,-133.409z"/>
     <g id="svg_4">
      <rect id="svg_5" fill="#27ae60" y="176.855" x="194.444" width="111.111" height="10.709"/>
      <rect id="svg_6" fill="#27ae60" y="200.565" x="152.778" width="194.445" height="9.375"/>
      <g id="svg_7">
       <rect id="svg_8" fill="#27ae60" y="222.939" x="152.778" width="57.188" height="57.194"/>
       <rect id="svg_9" fill="#27ae60" y="222.939" x="221.403" width="57.188" height="57.194"/>
       <rect id="svg_10" fill="#27ae60" y="222.939" x="290.033" width="57.189" height="57.194"/>
      </g>
     </g>
    </g>
   </g>
  </g>
  <g id="Layer_1"/>
 </g>
</svg>