<svg width="500" height="500" xmlns="http://www.w3.org/2000/svg">

 <g>
  <title>background</title>
  <rect fill="none" id="canvas_background" height="130" width="130" y="-1" x="-1"/>
 </g>
 <g>
  <title>Layer 1</title>
  <g id="www-world-globe">
   <g id="svg_1">
    <path id="svg_2" fill="#F4F1F0" d="m250,0c-138.069,0 -250,111.93 -250,250c0,138.075 111.931,250 250,250c138.075,0 250,-111.925 250,-250c0,-138.07 -111.925,-250 -250,-250z"/>
    <g stroke="null" id="_x39_">
     <path stroke="null" id="svg_3" fill="#675F58" d="m201.042,262.175l2.224,-7.938l2.213,7.938l-4.437,0zm94.922,-43.751l-4.243,0l1.02,1.023l4.242,0l-1.019,-1.023zm-7.118,1.023l0,-1.544l-6.082,-6.087l-4.547,4.568l-3.043,3.062l11.816,0l1.856,0l0,0.001zm22.482,0l1.52,-1.511l6.374,0l-4.02,-4.037l-6.044,0l-5.534,5.548l2.832,0l4.872,0zm-162.663,0l-5.42,0c13.287,-46.504 55.995,-80.58 106.776,-80.58c50.743,0 93.452,34.077 106.733,80.58l-3.201,0c-5.415,-18.295 -15.457,-34.614 -28.879,-47.464l-13.542,0l-0.662,3.38l-3.049,2.018l-6.407,0.673l0.325,-4.059l-5.734,-1.003l1.02,-4.053l-8.8,2.035l-4.709,8.11l-8.148,6.093l-0.635,7.737l8.1,2.029l4.726,2.04l2.371,-2.365l0,-12.837l3.043,0l0,6.423l5.725,0l0,6.738l-5.388,0l0,4.72l-13.504,0l0,4.742l-4.438,0l-6.039,-6.076l0,-4.059l-7.08,0l0,6.771l0,3.364l-1.893,1.845l3.554,3.559l4.417,-4.395l3.342,3.369l-1.861,1.872l0,2.539l-2.859,0l0,6.253l-33.821,0l-1.128,4.793l-1.031,-4.793l-15.901,0l3.423,-3.388l1.53,1.514l3.7,-3.706l-5.735,0l0,-3.049l4.058,0l0,-4.715l4.053,0l0,-11.485l-9.456,0l0,-2.045l-9.148,0l0,16.563l-3.352,1.009l-2.729,-6.424l-8.073,-5.718l-4.736,-6.413l8.094,0.982l2.724,-4.368l-2.382,-2.729l-1.009,-3.38l10.151,-0.651l1.312,-7.107l-33.827,-0.314c-10.742,10.807 -19.168,23.893 -24.598,38.444l0,6.981l-0.003,0zm89.882,-31.242l5.398,5.404l6.407,-6.418l12.294,-12.337l5.1,-5.073l5.903,0l0,-12.327l0,-8.778l-7.764,0l0,-5.566c-5.176,-0.776 -10.482,-1.194 -15.864,-1.194c-1.264,0 -2.474,0.076 -3.667,0.12l-0.391,0.895l0,8.458l-6.76,0l0,16.531l1.015,0l3.727,0l0,6.418l-5.398,0l0,13.867zm-53.429,-24.55l2.756,2.751l9.956,0l4.21,-4.232l0,-5.724l4.378,0l0,9.771l6.776,0l0,20.274l9.788,0l0,-28.044l-4.362,0l-8.459,0l0,-6.049l6.077,0l3.559,-3.554l-2.002,-1.996c-11.925,3.717 -22.943,9.463 -32.677,16.803zm158.089,117.324l-2.614,10.688l-16.635,0l0,8.322l-7.573,0l0,14.36l-5.914,5.893l-13.905,0l0,-12.761l-7.503,-7.492l0,-18.555l-2.875,10.232l-33.122,0l0,12.034l-9.12,0l-4.742,6.771l0,15.181l-13.856,10.134l0,18.235l-15.533,-14.155l0,-37.196l-15.945,-14.946l-1.106,3.944l-33.822,0l-2.588,-10.678l-2.609,10.678l-6.706,0c16.487,40.712 56.342,69.466 102.983,69.466c46.609,0 86.459,-28.754 102.94,-69.466l-7.167,0l-2.588,-10.689z"/>
     <g stroke="null" id="svg_4">
      <path stroke="null" id="svg_5" fill="#27ae60" d="m199.409,237.148l2.626,-9.367l-7.503,0l-1.486,0l-9.907,0l-5.013,21.33c-0.564,2.251 -1.085,5.241 -1.552,8.946c-0.472,3.711 -0.803,6.809 -1.003,9.294l-0.206,0c-0.032,-0.023 -0.07,-0.049 -0.108,-0.076c-0.401,-4.015 -1.367,-9.614 -2.892,-16.797l-4.812,-22.697l-21.652,0l-0.835,3.567l-4.427,18.842c-1.736,8.431 -2.658,14.155 -2.756,17.161l-0.304,0c-0.233,-4.84 -1.085,-10.916 -2.556,-18.24l-4.611,-21.33l-19.298,0l15.489,55.553l20.6,0l5.762,-23.578c0.439,-1.823 1.183,-5.618 2.23,-11.358c0.331,-1.801 0.688,-3.776 1.079,-5.957l0.304,0l0.998,6.424l0.597,3.145l0.911,4.85l6.413,26.476l20.952,0l2.186,-7.785l9.636,-34.358l1.138,-4.045z"/>
      <path stroke="null" id="svg_6" fill="#27ae60" d="m291.699,241.19l3.766,-13.409l-7.509,0l-0.071,0l-11.322,0l-5.013,21.33c-0.564,2.251 -1.085,5.241 -1.552,8.946c-0.467,3.711 -0.798,6.809 -0.998,9.294l-0.305,0c-0.401,-4.026 -1.372,-9.647 -2.902,-16.873l-4.812,-22.697l-8.729,0l-12.924,0l-5.268,22.41c-1.573,7.65 -2.474,13.042 -2.696,16.227c-0.022,0.325 -0.049,0.656 -0.055,0.934l-0.309,0c-0.011,-0.218 -0.038,-0.473 -0.049,-0.694c-0.277,-4.731 -1.101,-10.553 -2.501,-17.546l-4.612,-21.33l-11.795,0l-7.509,0l3.744,13.42l0.862,3.09l0.293,1.055l9.739,34.929l0.857,3.06l3.445,0l1.34,0l15.81,0l5.767,-23.578c0.504,-2.132 1.438,-6.958 2.794,-14.453c0.163,-0.917 0.331,-1.861 0.515,-2.862l0.3,0l0.445,2.862l0.559,3.562l1.503,7.994l6.412,26.476l20.953,0l10.856,-38.683l0.971,-3.464z"/>
      <path stroke="null" id="svg_7" fill="#27ae60" d="m369.992,227.78l-5.013,21.33c-0.569,2.251 -1.091,5.241 -1.552,8.946c-0.472,3.711 -0.803,6.809 -1.004,9.294l-0.304,0c-0.401,-4.026 -1.372,-9.647 -2.902,-16.873l-4.666,-22l-0.146,-0.697l-21.652,0l-5.268,22.41c-1.54,7.482 -2.436,12.82 -2.686,16.032c-0.032,0.401 -0.054,0.792 -0.064,1.129l-0.31,0c-0.011,-0.25 -0.038,-0.554 -0.06,-0.809c-0.282,-4.704 -1.096,-10.493 -2.49,-17.432l-1.443,-6.679l-3.168,-14.651l-11.789,0l-7.509,0l3.737,13.42l4.726,16.927l4.666,16.759l2.36,8.447l20.595,0l5.767,-23.578c0.386,-1.611 1.02,-4.796 1.889,-9.481c0.417,-2.265 0.884,-4.85 1.421,-7.834l0.299,0l0.737,4.709l0.266,1.714l1.503,7.994l6.419,26.476l20.947,0l15.592,-55.553l-18.898,0z"/>
     </g>
    </g>
   </g>
  </g>
  <g id="Layer_1"/>
 </g>
</svg>