<svg width="64" height="64" xmlns="http://www.w3.org/2000/svg">

 <g>
  <title>background</title>
  <rect fill="none" id="canvas_background" height="402" width="582" y="-1" x="-1"/>
 </g>
 <g>
  <title>Layer 1</title>
  <g stroke="null" id="svg_1">
   <g stroke="null" stroke-opacity="0" id="svg_2">
    <g stroke="null" id="svg_3">
     <rect stroke="#000000" id="svg_4" y="3.166" x="8.5" width="47" height="60.334" fill="#ffffff"/>
    </g>
    <g stroke="null" id="svg_5">
     <path stroke="#000000" id="svg_6" fill="#EFEFEF" d="m55,3.667l0,59.333l-46,0l0,-59.333l46,0m1,-1l-48,0l0,61.333l48,0l0,-61.333l0,0z"/>
    </g>
   </g>
   <g stroke="null" id="svg_7">
    <path stroke="null" fill="#7f8c8d" id="svg_8" d="m56,5.333l0,-4c0,-0.733 -0.588,-1.333 -1.306,-1.333l-45.388,0c-0.718,0 -1.306,0.6 -1.306,1.333l0,4l48,0z"/>
   </g>
   <g stroke="null" id="svg_9">
    <rect fill="#ecf0f1" id="svg_10" y="61.333" x="8" width="48" height="2.667"/>
   </g>
   <g stroke="null" id="svg_11">
    <circle stroke="null" id="svg_12" r="1" fill="#e74c3c" cy="2.667" cx="11.997"/>
   </g>
   <g stroke="null" id="svg_13">
    <circle stroke="null" id="svg_14" r="1" fill="#f1c40f" cy="2.667" cx="14.997"/>
   </g>
   <g stroke="null" id="svg_15">
    <circle stroke="null" id="svg_16" r="1" fill="#2ecc71" cy="2.667" cx="17.997"/>
   </g>
   <g stroke="null" id="svg_17">
    <path stroke="null" id="svg_18" fill="#FFFFFF" d="m45.756,4l-22.426,0c-0.733,0 -1.333,-0.6 -1.333,-1.333l0,0c0,-0.733 0.6,-1.333 1.333,-1.333l22.426,0c0.733,0 1.333,0.6 1.333,1.333l0,0c0,0.733 -0.6,1.333 -1.333,1.333z"/>
   </g>
   <g stroke="null" fill="#7f8c8d" id="svg_19">
    <path stroke="null" id="svg_20" d="m24.292,1.924l0.2,0.77c0.044,0.169 0.085,0.325 0.112,0.481l0.01,0c0.034,-0.153 0.085,-0.316 0.135,-0.479l0.247,-0.772l0.231,0l0.234,0.757c0.057,0.182 0.101,0.341 0.135,0.494l0.009,0c0.025,-0.153 0.066,-0.312 0.116,-0.491l0.216,-0.76l0.272,0l-0.488,1.514l-0.25,0l-0.231,-0.723c-0.054,-0.169 -0.098,-0.319 -0.135,-0.497l-0.005,0c-0.038,0.182 -0.085,0.338 -0.138,0.5l-0.244,0.72l-0.25,0l-0.457,-1.514l0.281,0z"/>
    <path stroke="null" id="svg_21" d="m26.635,1.924l0.2,0.77c0.044,0.169 0.084,0.325 0.112,0.481l0.01,0c0.034,-0.153 0.084,-0.316 0.134,-0.479l0.247,-0.772l0.231,0l0.235,0.757c0.056,0.182 0.1,0.341 0.134,0.494l0.01,0c0.025,-0.153 0.065,-0.312 0.116,-0.491l0.216,-0.76l0.271,0l-0.487,1.514l-0.251,0l-0.231,-0.723c-0.053,-0.169 -0.097,-0.319 -0.135,-0.497l-0.006,0c-0.037,0.182 -0.084,0.338 -0.138,0.5l-0.244,0.72l-0.25,0l-0.457,-1.514l0.283,0z"/>
    <path stroke="null" id="svg_22" d="m28.977,1.924l0.2,0.77c0.044,0.169 0.085,0.325 0.112,0.481l0.01,0c0.034,-0.153 0.085,-0.316 0.135,-0.479l0.247,-0.772l0.231,0l0.234,0.757c0.057,0.182 0.1,0.341 0.135,0.494l0.009,0c0.025,-0.153 0.066,-0.312 0.116,-0.491l0.216,-0.76l0.271,0l-0.487,1.514l-0.25,0l-0.231,-0.723c-0.054,-0.169 -0.098,-0.319 -0.135,-0.497l-0.006,0c-0.038,0.182 -0.085,0.338 -0.138,0.5l-0.244,0.72l-0.25,0l-0.457,-1.514l0.282,0z"/>
    <path stroke="null" id="svg_23" d="m30.985,3.275c0,-0.115 0.078,-0.196 0.188,-0.196s0.185,0.081 0.185,0.196c0,0.113 -0.072,0.197 -0.188,0.197c-0.111,0 -0.185,-0.084 -0.185,-0.197z"/>
   </g>
   <g stroke="null" id="svg_24">
    <rect stroke="null" id="svg_25" y="2.416" x="50.089" width="2.323" height="0.5" fill="#FFFFFF"/>
   </g>
   <g stroke="null" id="svg_26">
    <polygon stroke="null" id="svg_27" points="51.645,4.018 51.291,3.664 52.289,2.666 51.291,1.668 51.645,1.315 52.997,2.666   " fill="#FFFFFF"/>
   </g>
  </g>
  <g id="svg_28">
   <g fill="#bdc3c7" id="svg_29">
    <rect id="svg_30" y="38.667" x="11.997" width="40" height="18.667" fill="#7f8c8d"/>
   </g>
   <g id="svg_31">
    <g id="svg_32">
     <rect id="svg_33" y="33.333" x="11.997" width="18.667" height="1.333" fill="#7f8c8d"/>
    </g>
   </g>
   <g id="svg_34">
    <g id="svg_35">
     <rect id="svg_36" y="29.333" x="11.997" width="18.667" height="1.333" fill="#95a5a6"/>
    </g>
   </g>
   <g stroke="null" id="svg_37">
    <g stroke="null" id="svg_38">
     <rect stroke="null" id="svg_39" y="25.333" x="11.997" width="18.667" height="1.333" fill="#7f8c8d"/>
    </g>
   </g>
   <g id="svg_40">
    <g id="svg_41">
     <rect id="svg_42" y="21.333" x="11.997" width="18.667" height="1.333" fill="#95a5a6"/>
    </g>
   </g>
   <g id="svg_43">
    <g id="svg_44">
     <rect id="svg_45" y="17.333" x="11.997" width="18.667" height="1.333" fill="#7f8c8d"/>
    </g>
   </g>
   <g id="svg_46">
    <g id="svg_47">
     <rect id="svg_48" y="13.333" x="11.997" width="18.667" height="1.333" fill="#95a5a6"/>
    </g>
   </g>
   <g id="svg_49">
    <g id="svg_50">
     <rect id="svg_51" y="9.333" x="11.997" width="18.667" height="1.333" fill="#7f8c8d"/>
    </g>
   </g>
   <g id="svg_52">
    <rect id="svg_53" y="9.333" x="34.663" width="17.333" height="25.333" fill="#95a5a6"/>
   </g>
  </g>
 </g>
</svg>