<?xml version="1.0" ?><svg enable-background="new 0 0 64 64" id="Layer_3" version="1.1" viewBox="0 0 64 64" xml:space="preserve" xmlns="http://www.w3.org/2000/svg" xmlns:xlink="http://www.w3.org/1999/xlink"><g><g><g><rect fill="#FFFFFF" height="60.334" width="47" x="8.5" y="3.166"/></g><g><path d="M55,3.667V63H9V3.667H55 M56,2.667H8V64h48V2.667L56,2.667z" fill="#EFEFEF"/></g></g><g><path d="M56,5.333v-4C56,0.6,55.412,0,54.694,0L9.306,0C8.588,0,8,0.6,8,1.333v4H56z"/></g><g><rect height="2.667" width="48" x="8" y="61.333"/></g><g><circle cx="11.997" cy="2.667" fill="#E04F5F" r="1"/></g><g><circle cx="14.997" cy="2.667" fill="#25B6D2" r="1"/></g><g><circle cx="17.997" cy="2.667" fill="#F2B851" r="1"/></g><g><path d="M45.756,4H23.33c-0.733,0-1.333-0.6-1.333-1.333v0c0-0.733,0.6-1.333,1.333-1.333h22.426    c0.733,0,1.333,0.6,1.333,1.333v0C47.089,3.4,46.489,4,45.756,4z" fill="#FFFFFF"/></g><g><path d="M24.292,1.924l0.2,0.77c0.044,0.169,0.085,0.325,0.112,0.481h0.01c0.034-0.153,0.085-0.316,0.135-0.479l0.247-0.772h0.231    l0.234,0.757c0.057,0.182,0.101,0.341,0.135,0.494h0.009c0.025-0.153,0.066-0.312,0.116-0.491l0.216-0.76h0.272l-0.488,1.514    h-0.25l-0.231-0.723c-0.054-0.169-0.098-0.319-0.135-0.497H25.1c-0.038,0.182-0.085,0.338-0.138,0.5l-0.244,0.72h-0.25    l-0.457-1.514H24.292z"/><path d="M26.635,1.924l0.2,0.77c0.044,0.169,0.084,0.325,0.112,0.481h0.01c0.034-0.153,0.084-0.316,0.134-0.479l0.247-0.772h0.231    l0.235,0.757c0.056,0.182,0.1,0.341,0.134,0.494h0.01c0.025-0.153,0.065-0.312,0.116-0.491l0.216-0.76h0.271l-0.487,1.514h-0.251    l-0.231-0.723c-0.053-0.169-0.097-0.319-0.135-0.497h-0.006c-0.037,0.182-0.084,0.338-0.138,0.5l-0.244,0.72h-0.25l-0.457-1.514    H26.635z"/><path d="M28.977,1.924l0.2,0.77c0.044,0.169,0.085,0.325,0.112,0.481h0.01c0.034-0.153,0.085-0.316,0.135-0.479l0.247-0.772h0.231    l0.234,0.757c0.057,0.182,0.1,0.341,0.135,0.494h0.009c0.025-0.153,0.066-0.312,0.116-0.491l0.216-0.76h0.271l-0.487,1.514h-0.25    l-0.231-0.723c-0.054-0.169-0.098-0.319-0.135-0.497h-0.006c-0.038,0.182-0.085,0.338-0.138,0.5l-0.244,0.72h-0.25l-0.457-1.514    H28.977z"/><path d="M30.985,3.275c0-0.115,0.078-0.196,0.188-0.196s0.185,0.081,0.185,0.196c0,0.113-0.072,0.197-0.188,0.197    C31.059,3.472,30.985,3.388,30.985,3.275z"/></g><g><rect fill="#FFFFFF" height="0.5" width="2.323" x="50.089" y="2.416"/></g><g><polygon fill="#FFFFFF" points="51.645,4.018 51.291,3.664 52.289,2.666 51.291,1.668 51.645,1.315 52.997,2.666   "/></g></g><g><g><rect fill="#32BEA6" height="18.667" width="40" x="11.997" y="38.667"/></g><g><g><rect fill="#C9C9C9" height="1.333" width="18.667" x="11.997" y="33.333"/></g></g><g><g><rect fill="#C9C9C9" height="1.333" width="18.667" x="11.997" y="29.333"/></g></g><g><g><rect fill="#C9C9C9" height="1.333" width="18.667" x="11.997" y="25.333"/></g></g><g><g><rect fill="#C9C9C9" height="1.333" width="18.667" x="11.997" y="21.333"/></g></g><g><g><rect fill="#C9C9C9" height="1.333" width="18.667" x="11.997" y="17.333"/></g></g><g><g><rect fill="#C9C9C9" height="1.333" width="18.667" x="11.997" y="13.333"/></g></g><g><g><rect fill="#C9C9C9" height="1.333" width="18.667" x="11.997" y="9.333"/></g></g><g><rect fill="#25B6D2" height="25.333" width="17.333" x="34.663" y="9.333"/></g></g></svg>