<?xml version="1.0" encoding="UTF-8" standalone="no"?>
<svg
   xmlns:dc="http://purl.org/dc/elements/1.1/"
   xmlns:cc="http://creativecommons.org/ns#"
   xmlns:rdf="http://www.w3.org/1999/02/22-rdf-syntax-ns#"
   xmlns:svg="http://www.w3.org/2000/svg"
   xmlns="http://www.w3.org/2000/svg"
   viewBox="0 0 1866.6667 1200"
   height="1200"
   width="1866.6667"
   xml:space="preserve"
   id="svg2"
   version="1.1"><metadata
     id="metadata8"><rdf:RDF><cc:Work
         rdf:about=""><dc:format>image/svg+xml</dc:format><dc:type
           rdf:resource="http://purl.org/dc/dcmitype/StillImage" /></cc:Work></rdf:RDF></metadata><defs
     id="defs6"><clipPath
       id="clipPath18"
       clipPathUnits="userSpaceOnUse"><path
         id="path16"
         d="M 0,900 H 1400 V 0 H 0 Z" /></clipPath><clipPath
       id="clipPath30"
       clipPathUnits="userSpaceOnUse"><path
         id="path28"
         d="m 155.379,744.209 h 9.419 v -9.418 h -9.419 z" /></clipPath><clipPath
       id="clipPath46"
       clipPathUnits="userSpaceOnUse"><path
         id="path44"
         d="m 170.791,744.209 h 9.418 v -9.418 h -9.418 z" /></clipPath><clipPath
       id="clipPath62"
       clipPathUnits="userSpaceOnUse"><path
         id="path60"
         d="m 186.202,744.209 h 9.419 v -9.418 h -9.419 z" /></clipPath></defs><g
     transform="matrix(1.3333333,0,0,-1.3333333,0,1200)"
     id="g10"><g
       id="g12"><g
         clip-path="url(#clipPath18)"
         id="g14"><g
           transform="translate(948,729)"
           id="g20"><path
             id="path22"
             style="fill:#cccccc;fill-opacity:1;fill-rule:nonzero;stroke:none"
             d="m 0,0 h -801 v 18 c 0,2.761 2.261,5 5.05,5 H -5.051 C -2.261,23 0,20.761 0,18 Z" /></g><g
           id="g24"><g
             id="g26" /><g
             id="g38"><g
               style="opacity:0.71000701"
               id="g36"
               clip-path="url(#clipPath30)"><g
                 id="g34"
                 transform="translate(164.7979,739.5)"><path
                   id="path32"
                   style="fill:#e74c3c;fill-opacity:1;fill-rule:nonzero;stroke:none"
                   d="m 0,0 c 0,-2.601 -2.108,-4.709 -4.709,-4.709 -2.601,0 -4.709,2.108 -4.709,4.709 0,2.601 2.108,4.709 4.709,4.709 C -2.108,4.709 0,2.601 0,0" /></g></g></g></g><g
           id="g40"><g
             id="g42" /><g
             id="g54"><g
               style="opacity:0.71000701"
               id="g52"
               clip-path="url(#clipPath46)"><g
                 id="g50"
                 transform="translate(180.209,739.5)"><path
                   id="path48"
                   style="fill:#f1c40f;fill-opacity:1;fill-rule:nonzero;stroke:none"
                   d="m 0,0 c 0,-2.601 -2.108,-4.709 -4.709,-4.709 -2.601,0 -4.709,2.108 -4.709,4.709 0,2.601 2.108,4.709 4.709,4.709 C -2.108,4.709 0,2.601 0,0" /></g></g></g></g><g
           id="g56"><g
             id="g58" /><g
             id="g70"><g
               style="opacity:0.71000701"
               id="g68"
               clip-path="url(#clipPath62)"><g
                 id="g66"
                 transform="translate(195.6206,739.5)"><path
                   id="path64"
                   style="fill:#2ecc71;fill-opacity:1;fill-rule:nonzero;stroke:none"
                   d="m 0,0 c 0,-2.601 -2.108,-4.709 -4.709,-4.709 -2.601,0 -4.709,2.108 -4.709,4.709 0,2.601 2.108,4.709 4.709,4.709 C -2.108,4.709 0,2.601 0,0" /></g></g></g></g><g
           transform="translate(314,742.9565)"
           id="g72"><path
             id="path74"
             style="fill:#e6e6e6;fill-opacity:1;fill-rule:nonzero;stroke:none"
             d="m 0,0 c -0.396,1.189 -1.343,2.043 -3,2.043 h -91 c -1.657,0 -2.604,-0.896 -3,-2.043 l -4,-12.427 c -0.344,-0.998 -2,-1.53 -2,-1.53 H 6 c 0,0 -1.656,0.438 -2,1.53 z" /></g><g
           transform="translate(948,200.0674)"
           id="g76"><path
             id="path78"
             style="fill:#f2f2f2;fill-opacity:1;fill-rule:nonzero;stroke:none"
             d="M 0,0 C 0,-3.351 -2.508,-6.067 -5.603,-6.067 H -795.397 C -798.492,-6.067 -801,-3.351 -801,0 V 507.933 H 0 Z" /></g><path
           id="path80"
           style="fill:#e6e6e6;fill-opacity:1;fill-rule:nonzero;stroke:none"
           d="M 948,708 H 147 v 21 h 801 z" /></g></g></g></svg>