<svg width="901.98279" height="106.62752" xmlns="http://www.w3.org/2000/svg">

 <metadata id="metadata7">image/svg+xmlimage/svg+xml</metadata>
 <g>
  <title>background</title>
  <rect fill="none" id="canvas_background" height="402" width="582" y="-1" x="-1"/>
 </g>
 <g fill="#000000" id="g10">
  <title transform="translate(-72.93671417236328,-40.0000114440918) ">Layer 1</title>
  <g stroke="null" fill="#000000" id="layer1">
   <g stroke="null" font-size="18.353739px" font-style="normal" font-weight="normal" fill="#000000" font-family="Avance" id="text2985">
    <path stroke="null" fill="#ffffff" id="path2994" d="m62.429674,62.928282c-0.000061,4.943397 -0.823974,9.482603 -2.471699,13.617598c-1.647847,4.135035 -3.964081,7.694883 -6.948703,10.679566c-2.984744,2.984683 -6.575673,5.300917 -10.772829,6.948703c-4.197257,1.647806 -8.860806,2.471699 -13.990688,2.471699l-25.696243,0l0,-67.435151l25.696243,0c5.129882,0.000081 9.793431,0.839525 13.990688,2.51833c4.197156,1.647867 7.788085,3.964101 10.772829,6.948723c2.984622,2.953643 5.300856,6.497941 6.948703,10.632915c1.647725,4.135075 2.471638,8.674261 2.471699,13.617618m-12.871437,0c-0.000061,-3.699722 -0.497495,-7.010864 -1.492341,-9.933406c-0.963847,-2.953541 -2.378477,-5.44077 -4.243848,-7.461707c-1.834371,-2.051896 -4.072894,-3.621969 -6.715526,-4.71018c-2.611633,-1.088109 -5.565215,-1.632194 -8.860766,-1.632255l-13.104613,0l0,47.475077l13.104613,0c3.295551,0.00002 6.249133,-0.544065 8.860766,-1.632235c2.642632,-1.08817 4.881155,-2.642673 6.715526,-4.663569c1.865371,-2.051957 3.28,-4.539186 4.243848,-7.461707c0.994847,-2.953561 1.49228,-6.280234 1.492341,-9.980017"/>
    <path stroke="null" fill="#ffffff" id="path2996" d="m81.550284,57.09881c1.492321,-2.860279 3.26447,-5.098781 5.316468,-6.715526c2.051936,-1.647745 4.477004,-2.471638 7.275162,-2.471678c2.207381,0.000041 3.97953,0.481944 5.316468,1.44569l-0.746181,8.627589c-0.155505,0.559676 -0.388661,0.963847 -0.699529,1.212534c-0.279848,0.217667 -0.668469,0.32648 -1.165903,0.326459c-0.466373,0.00002 -1.165903,-0.077692 -2.098588,-0.233176c-0.901666,-0.155404 -1.78774,-0.233156 -2.658244,-0.233197c-1.274736,0.000041 -2.409517,0.186606 -3.404404,0.559636c-0.994908,0.373131 -1.896533,0.917196 -2.704855,1.632255c-0.777282,0.684019 -1.476811,1.523463 -2.098608,2.51833c-0.590737,0.994908 -1.150352,2.129709 -1.678887,3.404384l0,29.473738l-11.518989,0l0,-47.848167l6.762157,0c1.181433,0.000041 2.005326,0.217667 2.471699,0.652898c0.466333,0.404212 0.777241,1.150393 0.932706,2.238502l0.699529,5.40973"/>
    <path stroke="null" fill="#ffffff" id="path2998" d="m125.376132,48.051499c3.544278,0.000061 6.762137,0.575227 9.653578,1.725518c2.92246,1.150393 5.409689,2.782648 7.461687,4.896746c2.083017,2.114199 3.684171,4.694691 4.803483,7.741515c1.11921,3.046905 1.678826,6.451289 1.678887,10.213213c-0.000061,3.793045 -0.559676,7.213 -1.678887,10.259845c-1.119312,3.046865 -2.720466,5.642906 -4.803483,7.788146c-2.051997,2.14524 -4.539226,3.793025 -7.461687,4.943377c-2.891441,1.150352 -6.1093,1.725518 -9.653578,1.725518c-3.575419,0 -6.82438,-0.575166 -9.746861,-1.725518c-2.922501,-1.150352 -5.42528,-2.798138 -7.508338,-4.943377c-2.051977,-2.14524 -3.653131,-4.741281 -4.803463,-7.788146c-1.119251,-3.046844 -1.678887,-6.466799 -1.678887,-10.259845c0,-3.761924 0.559636,-7.166308 1.678887,-10.213213c1.150332,-3.046824 2.751486,-5.627315 4.803463,-7.741515c2.083058,-2.114098 4.585837,-3.746353 7.508338,-4.896746c2.922481,-1.150291 6.171441,-1.725457 9.746861,-1.725518m0,40.433112c3.97953,0 6.917581,-1.336877 8.814134,-4.010671c1.927573,-2.673754 2.891359,-6.591142 2.8914,-11.752186c-0.000041,-5.160983 -0.963827,-9.093901 -2.8914,-11.798817c-1.896553,-2.704814 -4.834605,-4.057262 -8.814134,-4.057303c-4.041793,0.000041 -7.042006,1.368019 -9.00068,4.103954c-1.927634,2.704895 -2.89142,6.622284 -2.89142,11.752166c0,5.129943 0.963786,9.047331 2.89142,11.752186c1.958674,2.673794 4.958887,4.010671 9.00068,4.010671"/>
    <path stroke="null" fill="#ffffff" id="path3000" d="m169.70039,48.79768l0,47.848167l-11.565641,0l0,-47.848167l11.565641,0m1.585624,-13.944057c-0.00002,0.994948 -0.202055,1.927654 -0.606267,2.798138c-0.404191,0.870585 -0.948277,1.632296 -1.632255,2.285153c-0.652918,0.652939 -1.43016,1.181473 -2.331785,1.585604c-0.901625,0.373131 -1.865432,0.559676 -2.8914,0.559615c-0.994908,0.000061 -1.943164,-0.186484 -2.844769,-0.559615c-0.870544,-0.40413 -1.632255,-0.932665 -2.285153,-1.585604c-0.652898,-0.652857 -1.181433,-1.414568 -1.585604,-2.285153c-0.37309,-0.870483 -0.559636,-1.803189 -0.559636,-2.798138c0,-1.025928 0.186606,-1.989734 0.559636,-2.89142c0.404171,-0.901544 0.932706,-1.678805 1.585604,-2.331785c0.652898,-0.652817 1.414609,-1.165821 2.285153,-1.538973c0.901605,-0.40411 1.849861,-0.606186 2.844769,-0.606267c1.025968,0.000081 1.989775,0.202157 2.8914,0.606267c0.901625,0.373151 1.678866,0.886156 2.331785,1.538973c0.683979,0.652979 1.228064,1.430241 1.632255,2.331785c0.404151,0.901686 0.606247,1.865493 0.606267,2.89142"/>
    <path stroke="null" fill="#ffffff" id="path3002" d="m211.477188,61.016218c-1.305837,-1.585584 -2.735997,-2.704834 -4.290479,-3.357773c-1.523463,-0.652857 -3.171248,-0.979317 -4.943377,-0.979357c-1.741089,0.000041 -3.311162,0.3265 -4.710201,0.979357c-1.399099,0.652939 -2.596083,1.647826 -3.59095,2.984683c-0.994908,1.305837 -1.756619,2.984723 -2.285153,5.03664c-0.528535,2.020917 -0.792812,4.414883 -0.792792,7.181899c-0.00002,2.798158 0.217606,5.176574 0.652898,7.135248c0.466333,1.927614 1.119231,3.513238 1.958694,4.756832c0.839423,1.212534 1.865412,2.098629 3.077945,2.658244c1.212513,0.528535 2.564941,0.792812 4.057303,0.792792c2.393946,0.00002 4.430352,-0.497434 6.10928,-1.492341c1.678846,-0.994867 3.26445,-2.409497 4.756832,-4.243827l0,-21.452395m11.51901,-33.670934l0,69.300562l-7.041985,0c-1.523483,0 -2.48727,-0.69955 -2.89142,-2.098608l-0.979337,-4.616938c-1.927654,2.207442 -4.150606,3.995121 -6.668895,5.363099c-2.48727,1.367978 -5.39422,2.051977 -8.720872,2.051977c-2.611613,0 -5.005579,-0.544085 -7.181899,-1.632255c-2.176341,-1.08815 -4.057303,-2.658224 -5.642906,-4.710201c-1.554523,-2.083037 -2.767057,-4.647999 -3.637581,-7.694863c-0.839443,-3.046865 -1.259165,-6.528981 -1.259165,-10.44639c0,-3.544278 0.481903,-6.839869 1.44571,-9.886754c0.963807,-3.046824 2.347315,-5.689517 4.150565,-7.92806c1.80325,-2.238461 3.96402,-3.97953 6.48237,-5.223185c2.51831,-1.274675 5.347528,-1.912022 8.487675,-1.912063c2.673754,0.000041 4.958907,0.419762 6.85544,1.259165c1.896492,0.839484 3.590909,1.974285 5.083291,3.404384l0,-25.22987l11.51901,0"/>
    <path stroke="null" fill="#ffffff" id="path3004" d="m384.400681,96.645847l-12.591629,0l0,-67.435151l12.591629,0l0,67.435151"/>
    <path stroke="null" fill="#ffffff" id="path3006" d="m456.347819,29.210696l0,67.435151l-6.435719,0c-0.994948,0 -1.834392,-0.155505 -2.51833,-0.466353c-0.652959,-0.34201 -1.290307,-0.901625 -1.912063,-1.678887l-35.209907,-44.956767c0.186606,2.052018 0.279787,3.94853 0.279808,5.689558l0,41.412449l-11.052636,0l0,-67.435151l6.575612,0c0.528535,0.000081 0.979337,0.031182 1.352448,0.093262c0.404151,0.031162 0.74614,0.124424 1.025968,0.279828c0.310888,0.124424 0.606247,0.32652 0.886095,0.606267c0.279787,0.248788 0.590696,0.590777 0.932706,1.025968l35.349821,45.143312c-0.093303,-1.08815 -0.171157,-2.160749 -0.233176,-3.217859c-0.062202,-1.057049 -0.093303,-2.036386 -0.093303,-2.938052l0,-40.992727l11.052657,0"/>
    <path stroke="null" fill="#ffffff" id="path3008" d="m531.336455,62.928282c-0.000081,4.943397 -0.823974,9.482603 -2.471699,13.617598c-1.647847,4.135035 -3.964081,7.694883 -6.948703,10.679566c-2.984744,2.984683 -6.575693,5.300917 -10.772849,6.948703c-4.197237,1.647806 -8.860806,2.471699 -13.990688,2.471699l-25.696222,0l0,-67.435151l25.696222,0c5.129882,0.000081 9.793451,0.839525 13.990688,2.51833c4.197156,1.647867 7.788105,3.964101 10.772849,6.948723c2.984622,2.953643 5.300856,6.497941 6.948703,10.632915c1.647725,4.135075 2.471617,8.674261 2.471699,13.617618m-12.871437,0c-0.000061,-3.699722 -0.497515,-7.010864 -1.492341,-9.933406c-0.963868,-2.953541 -2.378477,-5.44077 -4.243848,-7.461707c-1.834392,-2.051896 -4.072894,-3.621969 -6.715526,-4.71018c-2.611653,-1.088109 -5.565235,-1.632194 -8.860786,-1.632255l-13.104613,0l0,47.475077l13.104613,0c3.295551,0.00002 6.249133,-0.544065 8.860786,-1.632235c2.642632,-1.08817 4.881134,-2.642673 6.715526,-4.663569c1.865371,-2.051957 3.27998,-4.539186 4.243848,-7.461707c0.994827,-2.953561 1.49228,-6.280234 1.492341,-9.980017"/>
    <path stroke="null" fill="#ffffff" id="path3010" d="m569.462521,86.525916c2.425027,0 4.585797,-0.404171 6.48237,-1.212534c1.927553,-0.808342 3.544257,-1.943144 4.850094,-3.404404c1.305756,-1.46124 2.300643,-3.233389 2.984683,-5.316468c0.715039,-2.083037 1.072579,-4.414802 1.07262,-6.995334l0,-40.38648l12.544998,0l0,40.38648c-0.000081,4.010671 -0.652979,7.725985 -1.958715,11.145919c-1.274756,3.388854 -3.124637,6.326906 -5.549624,8.814134c-2.394027,2.456148 -5.316529,4.383741 -8.767503,5.78282c-3.451097,1.367978 -7.337384,2.051957 -11.658924,2.051957c-4.352681,0 -8.254519,-0.683979 -11.705534,-2.051957c-3.451056,-1.399079 -6.389108,-3.326672 -8.814134,-5.78282c-2.393987,-2.487229 -4.243868,-5.42528 -5.549644,-8.814134c-1.274715,-3.419935 -1.912063,-7.135248 -1.912063,-11.145919l0,-40.38648l12.544978,0l0,40.339829c-0.00002,2.580532 0.341989,4.912317 1.025989,6.995354c0.71506,2.083078 1.725498,3.870778 3.031314,5.363099c1.336877,1.461261 2.953561,2.596062 4.850115,3.404404c1.927573,0.808363 4.103893,1.212534 6.528981,1.212534"/>
    <path stroke="null" fill="#ffffff" id="path3012" d="m647.454785,41.475886c-0.373131,0.652939 -0.777302,1.134842 -1.212534,1.44569c-0.404212,0.279869 -0.917196,0.419783 -1.538973,0.419722c-0.652939,0.000061 -1.368019,-0.233115 -2.14524,-0.699529c-0.746201,-0.497393 -1.647826,-1.041478 -2.704855,-1.632235c-1.05711,-0.590676 -2.300724,-1.11921 -3.730864,-1.585624c-1.399099,-0.497393 -3.062435,-0.74612 -4.990008,-0.746161c-1.741089,0.000041 -3.264511,0.217687 -4.570287,0.652898c-1.305817,0.404232 -2.409537,0.979398 -3.311142,1.725518c-0.870544,0.746222 -1.523442,1.647847 -1.958694,2.704855c-0.435272,1.02605 -0.652918,2.160851 -0.652898,3.404404c-0.00002,1.585665 0.435252,2.907012 1.305796,3.96404c0.901605,1.05711 2.083037,1.958735 3.544318,2.704855c1.46122,0.746222 3.124556,1.41467 4.990008,2.005346c1.865391,0.590757 3.777454,1.228105 5.736189,1.912063c1.958654,0.652918 3.870717,1.43018 5.736169,2.331764c1.865391,0.870585 3.528727,1.989836 4.990029,3.357773c1.4612,1.336918 2.627082,2.984703 3.497667,4.943377c0.901584,1.958715 1.352387,4.337131 1.352427,7.135248c-0.000041,3.046885 -0.528575,5.907204 -1.585604,8.580958c-1.026029,2.642693 -2.549451,4.958928 -4.570287,6.948723c-1.989836,1.958694 -4.430434,3.513217 -7.321793,4.663549c-2.891461,1.119271 -6.202583,1.678887 -9.933406,1.678887c-2.14526,0 -4.259398,-0.217626 -6.342436,-0.652898c-2.083078,-0.404171 -4.088404,-0.994887 -6.015997,-1.772149c-1.896533,-0.777262 -3.684232,-1.709967 -5.363099,-2.798138c-1.678887,-1.08817 -3.171228,-2.300684 -4.477024,-3.637581l3.684212,-6.015997c0.310888,-0.435252 0.71508,-0.792792 1.212534,-1.07262c0.497434,-0.310888 1.025968,-0.466353 1.585604,-0.466353c0.777241,0 1.616685,0.326459 2.51833,0.979337c0.901605,0.621817 1.974224,1.321367 3.217859,2.098608c1.243594,0.777282 2.689304,1.492362 4.33711,2.14524c1.678866,0.621817 3.684192,0.932726 6.015997,0.932706c3.575379,0.00002 6.342415,-0.839423 8.30115,-2.51831c1.958654,-1.709967 2.938011,-4.150565 2.938031,-7.321793c-0.00002,-1.772149 -0.450843,-3.217839 -1.352427,-4.337131c-0.870565,-1.119231 -2.036447,-2.051936 -3.497667,-2.798138c-1.461281,-0.777221 -3.124617,-1.430119 -4.990029,-1.958694c-1.865432,-0.528514 -3.761944,-1.10368 -5.689538,-1.725518c-1.927634,-0.621777 -3.824146,-1.367937 -5.689558,-2.238502c-1.865432,-0.870504 -3.528768,-2.005305 -4.990008,-3.404404c-1.461261,-1.399038 -2.642693,-3.140107 -3.544298,-5.223205c-0.870544,-2.114098 -1.305817,-4.71014 -1.305796,-7.788146c-0.00002,-2.456087 0.481883,-4.850054 1.44569,-7.181879c0.994887,-2.331724 2.425047,-4.399251 4.290479,-6.202542c1.865412,-1.803189 4.166116,-3.248879 6.902092,-4.33711c2.735936,-1.088109 5.876063,-1.632194 9.420381,-1.632255c3.97955,0.000061 7.648212,0.621878 11.006026,1.865432c3.357712,1.243675 6.218032,2.984744 8.580958,5.223185l-3.124597,5.922734"/>
    <path stroke="null" fill="#ffffff" id="path3014" d="m709.837299,39.517192l-20.333144,0l0,57.128654l-12.544978,0l0,-57.128654l-20.333144,0l0,-10.306496l53.211266,0l0,10.306496"/>
    <path stroke="null" fill="#ffffff" id="path3016" d="m739.041372,61.296026c2.362845,0.000041 4.414802,-0.295318 6.155911,-0.886075c1.772108,-0.590676 3.217819,-1.399038 4.33711,-2.425067c1.150311,-1.057029 2.005285,-2.300643 2.564961,-3.730843c0.559575,-1.430119 0.839403,-3.000172 0.839443,-4.710201c-0.000041,-3.419894 -1.134842,-6.047037 -3.404404,-7.881429c-2.238543,-1.83427 -5.674028,-2.751445 -10.306476,-2.751486l-8.021343,0l0,22.385101l7.834797,0m32.271855,35.349821l-11.332444,0c-2.1453,0 -3.699824,-0.839443 -4.663569,-2.51833l-14.177233,-21.592309c-0.528575,-0.808322 -1.119292,-1.383488 -1.772149,-1.725518c-0.621838,-0.341969 -1.554564,-0.512964 -2.798158,-0.512984l-5.363099,0l0,26.349141l-12.544978,0l0,-67.435151l20.56632,0c4.570266,0.000081 8.487655,0.481985 11.752186,1.44571c3.295531,0.932787 5.984855,2.254113 8.067954,3.96404c2.114098,1.710028 3.668621,3.761985 4.663569,6.155891c0.994847,2.362926 1.49228,4.974519 1.492341,7.834797c-0.000061,2.269644 -0.34205,4.414883 -1.025989,6.435719c-0.652959,2.020917 -1.616746,3.855247 -2.8914,5.502992c-1.243675,1.647847 -2.798199,3.093536 -4.663569,4.337131c-1.834371,1.243635 -3.93298,2.222992 -6.295805,2.938031c0.808302,0.466394 1.554462,1.026029 2.238502,1.678887c0.683938,0.621838 1.305756,1.368019 1.865432,2.238522l16.882088,24.903431"/>
    <path stroke="null" fill="#ffffff" id="path3018" d="m791.187316,96.645847l-12.591629,0l0,-67.435151l12.591629,0l0,67.435151"/>
    <path stroke="null" fill="#ffffff" id="path3020" d="m818.877236,39.190733l0,18.700889l23.597635,0l0,9.653578l-23.597635,0l0,19.073979l29.94007,0l0,10.026668l-42.5317,0l0,-67.43513l42.5317,0l0,9.980017l-29.94007,0"/>
    <path stroke="null" fill="#ffffff" id="path3022" d="m895.753177,41.475886c-0.373131,0.652939 -0.777302,1.134842 -1.212534,1.44569c-0.404212,0.279869 -0.917196,0.419783 -1.538973,0.419722c-0.652939,0.000061 -1.368019,-0.233115 -2.14524,-0.699529c-0.746201,-0.497393 -1.647826,-1.041478 -2.704855,-1.632235c-1.05711,-0.590676 -2.300724,-1.11921 -3.730864,-1.585624c-1.399099,-0.497393 -3.062435,-0.74612 -4.990008,-0.746161c-1.741089,0.000041 -3.264511,0.217687 -4.570287,0.652898c-1.305817,0.404232 -2.409537,0.979398 -3.311142,1.725518c-0.870544,0.746222 -1.523442,1.647847 -1.958694,2.704855c-0.435272,1.02605 -0.652918,2.160851 -0.652898,3.404404c-0.00002,1.585665 0.435252,2.907012 1.305796,3.96404c0.901605,1.05711 2.083037,1.958735 3.544318,2.704855c1.46122,0.746222 3.124556,1.41467 4.990008,2.005346c1.865391,0.590757 3.777454,1.228105 5.736189,1.912063c1.958654,0.652918 3.870717,1.43018 5.736169,2.331764c1.865391,0.870585 3.528727,1.989836 4.990029,3.357773c1.4612,1.336918 2.627082,2.984703 3.497667,4.943377c0.901584,1.958715 1.352387,4.337131 1.352427,7.135248c-0.000041,3.046885 -0.528575,5.907204 -1.585604,8.580958c-1.026029,2.642693 -2.549451,4.958928 -4.570287,6.948723c-1.989836,1.958694 -4.430434,3.513217 -7.321793,4.663549c-2.891461,1.119271 -6.202583,1.678887 -9.933406,1.678887c-2.14526,0 -4.259398,-0.217626 -6.342436,-0.652898c-2.083078,-0.404171 -4.088404,-0.994887 -6.015997,-1.772149c-1.896533,-0.777262 -3.684232,-1.709967 -5.363099,-2.798138c-1.678887,-1.08817 -3.171228,-2.300684 -4.477024,-3.637581l3.684212,-6.015997c0.310888,-0.435252 0.71508,-0.792792 1.212534,-1.07262c0.497434,-0.310888 1.025968,-0.466353 1.585604,-0.466353c0.777241,0 1.616685,0.326459 2.51833,0.979337c0.901605,0.621817 1.974224,1.321367 3.217859,2.098608c1.243594,0.777282 2.689304,1.492362 4.33711,2.14524c1.678866,0.621817 3.684192,0.932726 6.015997,0.932706c3.575379,0.00002 6.342415,-0.839423 8.30115,-2.51831c1.958654,-1.709967 2.938011,-4.150565 2.938031,-7.321793c-0.00002,-1.772149 -0.450843,-3.217839 -1.352427,-4.337131c-0.870565,-1.119231 -2.036447,-2.051936 -3.497667,-2.798138c-1.461281,-0.777221 -3.124617,-1.430119 -4.990029,-1.958694c-1.865432,-0.528514 -3.761944,-1.10368 -5.689538,-1.725518c-1.927634,-0.621777 -3.824146,-1.367937 -5.689558,-2.238502c-1.865432,-0.870504 -3.528768,-2.005305 -4.990008,-3.404404c-1.461261,-1.399038 -2.642693,-3.140107 -3.544298,-5.223205c-0.870544,-2.114098 -1.305817,-4.71014 -1.305796,-7.788146c-0.00002,-2.456087 0.481883,-4.850054 1.44569,-7.181879c0.994887,-2.331724 2.425047,-4.399251 4.290479,-6.202542c1.865412,-1.803189 4.166116,-3.248879 6.902071,-4.33711c2.735956,-1.088109 5.876083,-1.632194 9.420401,-1.632255c3.97955,0.000061 7.648212,0.621878 11.006026,1.865432c3.357712,1.243675 6.218032,2.984744 8.580958,5.223185l-3.124597,5.922734"/>
   </g>
   <g stroke="null" fill="#000000" id="g3397" transform="matrix(1.8545114144778252,0,0,1.8545114144778252,575.133169931403,233.06555688855724) ">
    <path stroke="null" fill="#ffffff" id="path3056-9" d="m-150.228199,-105.672627c-9.66498,0 -17.5,15.67003 -17.5,35l35,0c0,-19.32997 -7.83502,-35 -17.5,-35zm0,4c7.73199,0 14,12.53603 14,28l-28,0c0,-15.46397 6.26801,-28 14,-28z"/>
    <path stroke="null" fill="#ffffff" id="path3301" d="m-164.228199,-89.610127c-6.53213,1.17346 -11.15625,4.05994 -11.15625,7.4375c0,3.37756 4.62412,6.26404 11.15625,7.4375l0,-3.5625c-3.8643,-0.4271 -6.75,-1.99389 -6.75,-3.875c0,-1.88111 2.8857,-3.4479 6.75,-3.875l0,-3.5625z"/>
    <path stroke="null" fill="#ffffff" d="m-135.759449,-89.610127c6.53213,1.17346 11.15625,4.05994 11.15625,7.4375c0,3.37756 -4.62412,6.26404 -11.15625,7.4375l0,-3.5625c3.8643,-0.4271 6.75,-1.99389 6.75,-3.875c0,-1.88111 -2.8857,-3.4479 -6.75,-3.875l0,-3.5625z" id="path3327"/>
    <path stroke="null" fill="#ffffff" id="rect3329" d="m-150.411419,-124.300147c-4.01531,0 -7.25,1.95186 -7.25,4.375l0,16.34375c0,0.29255 0.0663,0.56755 0.15625,0.84375l14.21875,0c0.09,-0.2762 0.125,-0.5512 0.125,-0.84375l0,-16.34375c0,-2.42314 -3.23469,-4.375 -7.25,-4.375zm0,3.8125c1.35327,0 2.4375,2.47905 2.4375,5.5625l0,6.34375c0,3.08344 -1.08423,5.59375 -2.4375,5.59375c-1.35327,0 -2.4375,-2.51031 -2.4375,-5.59375l0,-6.34375c0,-3.08345 1.08423,-5.5625 2.4375,-5.5625z"/>
    <rect stroke="null" fill="#ffffff" y="-84.938718" x="-157.468699" height="5.012247" width="5.012247" id="rect3359"/>
    <rect stroke="null" fill="#ffffff" y="-84.938718" x="-148.406199" height="5.012247" width="5.012247" id="rect3359-7"/>
   </g>
  </g>
 </g>
</svg>