<svg width="1288" height="281" xmlns="http://www.w3.org/2000/svg">

 <g>
  <title>background</title>
  <rect fill="none" id="canvas_background" height="402" width="582" y="-1" x="-1"/>
 </g>
 <g>
  <title>Layer 1</title>
  <g id="#000000ff">
   <path id="svg_1" d="m420.9,0l31.75,0c4.66,3.21 10.45,6.82 11.08,13.01c0.83,26.23 -0.14,52.48 0.36,78.71c15.28,15.06 25.4,34.66 31.32,55.12c6.16,1.94 12.47,3.34 18.66,5.17c8.6,2.56 17.61,6.3 23.03,13.82c3.66,7.81 3.66,18.9 -3.38,24.88c-8.73,6.55 -19.63,8.84 -29.81,12.16c0.14,5.71 0.06,11.42 0.09,17.13c-45.3,0 -90.6,0.01 -135.9,-0.01c-0.11,-5.81 -0.2,-11.61 -0.34,-17.42c-10.15,-2.96 -20.9,-5.36 -29.48,-11.9c-6.52,-5.15 -6.73,-14.68 -4.6,-22.04c1.36,-4.72 5.62,-7.75 9.48,-10.38c10.03,-6.19 21.92,-7.84 33.05,-11.12c6.41,-20.42 16.2,-40.32 31.68,-55.42c0.44,-27.98 -0.52,-55.98 0.64,-83.95c4.12,-2.58 8.13,-5.35 12.37,-7.76m10.49,18.57c-5.63,16.95 -2.93,35 -3.34,52.49c0.87,5.5 6.89,7.5 11.07,10.05c4.19,-8.39 5.52,-17.89 5.53,-27.19c0.01,-12.27 -1.97,-24.41 -2.89,-36.62c-3.46,0.43 -6.92,0.85 -10.37,1.27m-3.15,86.61c-11.45,7.52 -20.1,18.82 -25.89,31.14c-9.17,19.79 -11.63,42.08 -10.36,63.67c29.34,-0.01 58.67,0 88.01,0c1.14,-20.17 -1.3,-40.71 -8.2,-59.75c-5.46,-10.11 -10.91,-20.63 -19.49,-28.5c-6.31,-5.85 -15.64,-9.14 -24.07,-6.56m-74.09,69.65c1.99,2.99 3.96,6 5.99,8.97c2.3,0.64 4.61,1.29 6.92,1.93c1.98,-6.03 3.63,-12.17 4.77,-18.41c-6.69,-0.6 -14,1.49 -17.68,7.51m146.11,-7.43c1.14,6.11 2.59,12.17 4.36,18.14c2.42,-0.57 4.85,-1.14 7.29,-1.7c1.99,-3.02 3.93,-6.08 5.9,-9.12c-3.76,-5.83 -10.91,-8.03 -17.55,-7.32z" fill="#ffffff"/>
   <path id="svg_2" d="m649.04,135.04c7.16,-0.11 14.32,-0.27 21.47,-0.44c0.94,27.13 0.14,54.27 0.44,81.4c-10.19,0.19 -20.39,0.29 -30.58,0.18c-7.97,-17.63 -15.2,-35.58 -23.36,-53.12c-0.02,17.73 0.09,35.45 0.03,53.18c-6.67,-0.08 -13.34,-0.17 -20.01,-0.23c-0.25,-20.97 0.58,-41.97 -0.35,-62.92c-1.65,-5.26 -8.14,-5.79 -12.67,-7.08c-0.03,-3.69 -0.04,-7.38 -0.04,-11.08c13.4,-0.05 26.79,-0.04 40.19,0.08c8.07,20.26 16.47,40.4 25.13,60.42c-0.46,-20.13 -0.18,-40.26 -0.25,-60.39z" fill="#ffffff"/>
   <path id="svg_3" d="m870.43,136.64c6.87,-2.44 14.28,-3.19 21.54,-2.77c9.56,0.62 19.59,3.67 26.2,10.96c3.38,3.6 5.28,8.27 6.37,13.03c-5.03,0.03 -10.05,0.05 -15.07,-0.04c-5.83,-5.27 -13.33,-9.83 -21.5,-8.93c-2.51,0.42 -5.65,0.64 -7.12,3.05c-1.68,2.61 -1.43,7 1.72,8.37c9.05,4.14 19.37,4.44 28.32,8.84c6.32,3.04 11.33,8.95 12.81,15.86c1.97,9.57 -2.13,19.97 -9.79,25.93c-6.26,4.61 -14.28,6.32 -21.93,6.31c-13.31,-0.23 -25.8,-5.77 -37.17,-12.24c0.1,-7.25 0.03,-14.51 0.24,-21.76c2.4,-0.14 4.94,-0.52 7.24,0.48c7.21,3.02 10.21,11.67 17.73,14.23c3.75,0.95 7.86,2.12 11.64,0.61c3.54,-1.34 6.24,-4.11 8.83,-6.76c-11.26,-8.07 -25.98,-7.75 -37.85,-14.48c-5.74,-3.19 -8.86,-9.93 -8.75,-16.35c0.17,-10.36 6.87,-20.47 16.54,-24.34z" fill="#ffffff"/>
   <path id="svg_4" d="m1239.01,135.24c12.14,-2.56 25.62,-2.14 36.6,4.17c6.71,3.81 11.27,10.76 12.38,18.37c-4.88,-0.2 -9.83,0.29 -14.65,-0.52c-3.35,-1.77 -6.18,-4.38 -9.59,-6.03c-4.87,-2.63 -10.86,-3.21 -16.08,-1.42c-3.51,1.27 -5.37,6.45 -2.72,9.22c10.17,5.34 22.28,5.78 32.23,11.71c5.21,2.97 9.1,7.98 10.82,13.72l0,10.46c-2.32,7.38 -6.67,14.62 -13.69,18.33c-7.78,3.94 -16.85,4.84 -25.38,3.43c-10.72,-1.75 -20.68,-6.41 -30.16,-11.51c0.08,-7.13 0.13,-14.25 0.21,-21.37c3.44,0.18 6.89,0.37 10.34,0.61c4.56,8.49 13.75,15.19 23.71,14.25c4.9,-0.32 9.06,-3.3 12.36,-6.74c-11.98,-7.17 -26.4,-8.23 -38.68,-14.7c-5.54,-2.84 -8.61,-9.15 -8.82,-15.2c-0.38,-12.34 8.82,-24.55 21.12,-26.78z" fill="#ffffff"/>
   <path id="svg_5" d="m2.21,134.93c18.93,0.43 37.9,-0.96 56.8,0.63c9.39,0.78 18.04,6.26 23.29,14c9.8,14.48 10.8,34.67 2.15,49.92c-5.14,9.15 -15.32,14.27 -25.36,16c-14.89,2.56 -29.98,-0.21 -44.96,0.67c-0.11,-19.39 0.11,-38.77 0.04,-58.15c-0.12,-2.04 0.38,-4.41 -1.01,-6.13c-2.34,-2.89 -6.35,-3.46 -9.08,-5.82c-0.93,-3.65 -1.21,-7.42 -1.87,-11.12m35.07,17.72c-0.34,15.87 -1.64,31.72 -1.35,47.6c8.29,-0.57 17.56,0.59 24.69,-4.59c6.01,-4.08 8.86,-11.5 8.64,-18.58c-0.22,-6.8 -1.54,-14.62 -7.43,-18.89c-7.05,-5.14 -16.2,-5.12 -24.55,-5.54z" fill="#ffffff"/>
   <path id="svg_6" d="m234.36,135.43c7.39,-1.97 14.98,6.23 12.73,13.46c-1.38,3.83 -4.83,7.38 -9.11,7.5c-6.6,0.09 -12.97,-6.65 -11.29,-13.31c1.25,-3.47 4.19,-6.43 7.67,-7.65z" fill="#ffffff"/>
   <path id="svg_7" d="m674.28,135.05c15.55,-0.01 31.09,-0.41 46.64,-0.14c7.39,0.26 15.17,-0.09 22.02,3.2c10.25,4.66 16.97,14.86 19.71,25.51c3.02,11.65 2.12,24.62 -3.85,35.22c-4.31,7.73 -11.9,13.6 -20.58,15.5c-16.5,3.81 -33.49,1.18 -50.22,1.71c-0.06,-21.55 0.02,-43.1 -0.02,-64.65c-4.58,-1.79 -9.82,-3.4 -12.71,-7.69c-1.77,-2.55 -1.29,-5.77 -0.99,-8.66m36.84,17.59c-0.33,15.89 -1.64,31.75 -1.32,47.65c8.33,-0.6 17.62,0.55 24.81,-4.61c5.85,-3.79 8.49,-10.92 8.47,-17.66c-0.08,-6.45 -0.57,-13.84 -5.72,-18.43c-7.05,-6.42 -17.22,-6.81 -26.24,-6.95z" fill="#ffffff"/>
   <path id="svg_8" d="m826.11,134.91c7.29,0 14.58,0.02 21.87,0.01c-0.11,18.04 0.2,36.08 -0.01,54.12c-0.03,14.36 -12.18,28.35 -26.91,28.47c-10.98,-0.06 -22.91,1.94 -32.95,-3.66c-5.89,-3.09 -8.54,-9.69 -9.97,-15.82c-2.92,-13.67 0.5,-27.77 -1.77,-41.5c-1.83,-4.05 -6.62,-5.15 -10.3,-6.87c-0.17,-4.4 -0.25,-8.8 -0.35,-13.21c11.07,-0.61 22.16,-0.55 33.24,-0.41c-0.36,19.01 0.54,38.01 1.45,57c-0.32,5.06 5.23,7.96 9.61,8.28c6.94,0.71 15.66,-3.59 16.01,-11.3c0.38,-18.37 -0.09,-36.74 0.08,-55.11z" fill="#ffffff"/>
   <path id="svg_9" d="m928,134.92c23.01,0 46.03,-0.02 69.04,0.02c0,5.65 0,11.29 0.03,16.94c-7.89,0.06 -15.77,0.19 -23.64,0.61c0.85,21.28 0.25,42.58 0.43,63.87c-7.65,-0.1 -15.3,-0.19 -22.94,-0.26c-0.02,-21.64 0.02,-43.29 0,-64.93c-6.26,-0.37 -10.02,4.98 -14.35,8.49c-2.33,2.08 -5.52,2.35 -8.5,2.21c-0.17,-8.98 -0.07,-17.97 -0.07,-26.95z" fill="#ffffff"/>
   <path id="svg_10" d="m1002.29,134.93c21.44,1.13 43.5,-3 64.42,3.4c13.95,4.52 19.51,23.28 12,35.39c-1.73,3.02 -4.48,5.24 -7.28,7.22c3.55,6.57 5.67,14.15 11.09,19.53c2.69,2.8 6.52,3.86 10.26,4.32c0.25,3.7 -0.56,7.88 -3.88,10.03c-5.89,3.81 -13.66,3.33 -20.08,1.29c-7.75,-5.78 -8.43,-16.49 -14.14,-23.78c-4.95,-4.75 -12.32,-4.5 -18.69,-4.88c-0.01,9.56 0,19.12 0,28.68c-7.29,0.06 -14.59,0.13 -21.88,0.2c-0.35,-20.81 0.61,-41.64 -0.28,-62.44c-0.92,-5.62 -7.72,-6.19 -12,-8.07c0.12,-3.63 0.28,-7.26 0.46,-10.89m33.91,12.53c-0.17,8.36 -0.24,16.72 -0.24,25.09c5.72,-0.58 11.84,-0.72 16.93,-3.74c6.37,-3.68 5.81,-14.85 -0.92,-17.87c-4.89,-2.43 -10.47,-2.64 -15.77,-3.48z" fill="#ffffff"/>
   <path id="svg_11" d="m1134.29,134.9c25.9,0.04 51.79,0.01 77.69,0.02c0.01,4.72 0.01,9.44 0,14.16c-15.39,0 -30.8,-0.31 -46.19,0.39c1.56,4.89 1.45,12.27 7.35,14.05c10.61,1.15 21.26,-0.54 31.89,-0.85c0,6.41 0.01,12.83 0.04,19.24c-11.1,0.29 -22.34,-1.22 -33.31,0.92c-5.33,2.5 -4.89,11.54 0.62,13.59c12.47,1.39 25.07,0.43 37.6,0.54c-0.08,6.31 -0.09,12.61 -0.08,18.92c-20.64,0.55 -41.29,0.17 -61.93,0.17c0.2,-21.23 -0.04,-42.51 -1.57,-63.69c-1.99,-4.89 -8.37,-4.66 -12.62,-6.29c0.14,-3.73 0.31,-7.45 0.51,-11.17z" fill="#ffffff"/>
   <path id="svg_12" d="m293.04,135.11c6.71,2.5 13.4,5.04 20.08,7.63c-0.03,19.1 -0.19,38.2 -0.09,57.29c0.67,4.31 5.1,6.38 8.89,7.32c-0.03,2.97 -0.08,5.94 -0.14,8.92c-17.2,-0.15 -34.44,-0.89 -51.61,0.48c-4.23,0.49 -7.8,-2.59 -10.68,-5.29c-8.17,-8.76 -9.28,-22.08 -6.29,-33.23c2.08,-7.37 6.32,-15.35 14.17,-17.72c8.89,-2.58 18.13,0.94 25.78,5.41c-0.15,-10.27 -0.1,-20.54 -0.11,-30.81m-15.28,37.66c-6.17,9.94 -6,24.69 3.31,32.7c2.52,-0.55 5.19,-1.42 6.66,-3.72c3.28,-4.88 3.31,-11.05 3.26,-16.71c0.03,-5.46 -1.72,-11.54 -6.36,-14.81c-2.54,-1.75 -5.56,0.24 -6.87,2.54z" fill="#ffffff"/>
   <path id="svg_13" d="m546.16,135.99c10.57,-0.01 21.13,0 31.7,0c0.01,26.75 0,53.51 0,80.27c-6.58,-0.01 -13.16,-0.03 -19.74,-0.05c-0.22,-20.72 0.41,-41.46 -0.21,-62.18c-1.12,-5.32 -7.58,-5.98 -11.92,-7.26c0.04,-3.6 0.1,-7.19 0.17,-10.78z" fill="#ffffff"/>
   <path id="svg_14" d="m1095.99,136c10.66,0 21.33,-0.02 32,-0.01c0,26.74 0,53.49 -0.01,80.24c-6.66,-0.04 -13.32,-0.08 -19.98,-0.1c-0.23,-21.01 0.4,-42.04 -0.26,-63.04c-1.54,-4.83 -7.69,-4.72 -11.75,-5.99c-0.02,-3.7 -0.02,-7.4 0,-11.1z" fill="#ffffff"/>
   <path id="svg_15" d="m178.25,157.34c15.02,-2.59 31.07,6.75 36.5,20.94c4.65,12.14 -0.55,27.07 -11.57,33.9c-15.52,10.1 -39.9,6.84 -49.38,-10.01c-7.24,-11.03 -3.98,-26.29 5.07,-35.27c5.05,-5.46 12.21,-8.23 19.38,-9.56m2.85,12.8c-4.8,2.42 -7.59,7.62 -8.11,12.83c-0.94,8.6 1.78,17.45 6.96,24.33c3.56,-1.14 7.12,-2.82 9.44,-5.89c7.26,-9.28 5.96,-25 -4.09,-31.8c-1.3,-1.26 -2.9,-0.03 -4.2,0.53z" fill="#ffffff"/>
   <path id="svg_16" d="m101.19,164.08c10.35,-6.29 22.99,-6.44 34.68,-5.32c8.49,0.76 12.7,11.85 8.88,18.83c-2.53,4.56 -8.97,4.73 -13.19,2.72c-4.81,-3.08 -5.15,-9.49 -4.98,-14.63c-1.68,2.24 -4.41,4.15 -4.28,7.26c-1.33,14.4 -0.01,28.85 -0.42,43.27c-10.42,0.02 -20.84,0.06 -31.25,-0.31c0.72,-6.8 10.07,-7.61 10.64,-14.36c1.79,-12.46 -1.2,-24.97 -0.08,-37.46z" fill="#ffffff"/>
   <path id="svg_17" d="m227.99,159.99c5.96,-0.01 11.91,-0.01 17.87,0.01c0,18.77 -0.01,37.54 -0.01,56.31c-8.89,-0.08 -17.79,-0.07 -26.68,-0.27c0.21,-2.74 0.29,-5.66 1.86,-8.04c1.46,-2.54 4.15,-3.9 6.68,-5.14c0.45,-14.29 0.24,-28.58 0.28,-42.87z" fill="#ffffff"/>
   <path id="svg_18" d="m408,163.99c6.66,-0.01 13.33,-0.01 20,0.01c-0.02,6.66 -0.01,13.33 -0.01,19.99c-6.67,0 -13.34,0 -20,0c-0.01,-6.67 -0.02,-13.33 0.01,-20z" fill="#ffffff"/>
   <path id="svg_19" d="m444,163.99c6.66,-0.01 13.33,-0.01 20,0.01c-0.02,6.66 -0.01,13.33 -0.01,19.99c-6.67,0 -13.34,0 -20,0c-0.01,-6.67 -0.02,-13.34 0.01,-20z" fill="#ffffff"/>
  </g>
  <g id="#616161fe">
   <path id="svg_20" d="m147.78,232.68c4.24,-1.08 8.6,-1.65 12.99,-1.75c-0.06,5.26 0.01,10.52 -0.13,15.79c0.81,0 1.63,0 2.45,0c2.75,-2.6 6.85,-3.11 10.4,-2.18c4.68,2.19 5.25,8.21 4.61,12.73c-0.82,4.32 -0.19,9.49 3.98,11.9c-5.31,0.05 -10.61,-0.02 -15.92,0.05c1.4,-1.12 3.62,-1.98 3.34,-4.18c0.28,-5.41 0.49,-10.9 -0.29,-16.29c-1.45,-3.45 -5.46,-1.61 -7.71,-0.08c-1.16,5.76 -1.5,11.89 0.05,17.61c0.86,0.95 1.72,1.91 2.58,2.88c-5.1,0.01 -10.2,0.14 -15.3,-0.08c1.19,-0.95 2.43,-1.85 3.55,-2.9c0.04,-10.18 0.19,-20.37 -0.08,-30.55c-1.48,-1.03 -3,-2 -4.52,-2.95z" fill="#ffffff"/>
   <path id="svg_21" d="m315.07,230.93c1.65,0.06 3.31,0.12 4.98,0.19c0.84,1.68 1.68,3.35 2.59,4.99c-1.36,2.61 -3.68,4.64 -6.8,4.34c-1.36,-1.27 -3.55,-2.24 -3.55,-4.39c-0.23,-2.13 1.63,-3.58 2.78,-5.13z" fill="#ffffff"/>
   <path id="svg_22" d="m381.31,236.05c1.13,-1.73 2.26,-3.46 3.41,-5.18c2.24,0.09 5.09,-0.27 6.22,2.21c2.47,2.9 -0.44,7.37 -3.9,7.22c-2.76,0.25 -4.24,-2.43 -5.73,-4.25z" fill="#ffffff"/>
   <path id="svg_23" d="m480.11,231.11c1.62,-0.04 3.25,-0.07 4.88,-0.1c1.5,2.07 4.12,5.15 1.49,7.44c-1.95,2.74 -5.48,1.87 -7.92,0.37c-2.07,-2.76 -0.24,-5.47 1.55,-7.71z" fill="#ffffff"/>
   <path id="svg_24" d="m693.87,232.9c4.35,-1.66 9.06,-1.99 13.69,-1.83c-0.54,11.74 -0.09,23.49 -0.23,35.24c1.38,0.93 2.76,1.86 4.15,2.8c-5.59,0.08 -11.18,0.24 -16.76,-0.11c1.15,-0.77 2.4,-1.39 3.72,-1.85c0.42,-10.45 0.3,-20.91 0.1,-31.36c-1.55,-0.98 -3.11,-1.95 -4.67,-2.89z" fill="#ffffff"/>
   <path id="svg_25" d="m767.15,231c1.62,0.01 3.24,0.01 4.88,0.02c0.91,1.69 1.81,3.39 2.76,5.07c-1.01,1.57 -2.2,2.99 -3.59,4.22c-0.83,-0.01 -2.49,-0.02 -3.32,-0.03c-1.2,-0.98 -2.68,-1.75 -3.38,-3.19c-0.86,-2.49 1.36,-4.28 2.65,-6.09z" fill="#ffffff"/>
   <path id="svg_26" d="m12.35,234.21c5.93,-2.21 12.24,1.63 18.09,-0.7c0.1,4.24 0.19,8.48 -0.12,12.7c-3.67,-3.66 -6.17,-10.54 -12.36,-9.99c-4.18,-0.82 -8.09,5.2 -4.35,8.08c5.45,3.8 13.04,3.39 17.68,8.56c1.43,2.57 1.66,5.47 1.29,8.34c-1.79,3.44 -4.76,6.34 -8.63,7.22c-6.54,2.3 -13.33,-1.07 -19.95,0.39c0.04,-4.56 -0.21,-9.13 0.33,-13.66c2.2,4.37 5.25,8.62 9.71,10.9c2.99,0.89 6.84,1.01 9.17,-1.43c1.68,-1.48 2.21,-4.65 0.18,-6.06c-3.24,-2.63 -7.55,-3.17 -11.31,-4.75c-4.15,-1.52 -9.02,-4.77 -8.15,-9.87c-0.7,-5 4.29,-8.34 8.42,-9.73z" fill="#ffffff"/>
   <path id="svg_27" d="m224.08,235.51c4.98,-2.06 10.73,-2.75 15.88,-0.9c6,1.7 11.06,6.8 12.3,12.98c0.8,3.86 0.19,7.89 -1.35,11.49c-5.77,12.12 -24.26,13.58 -32.71,3.63c-7.46,-8.1 -4.02,-22.71 5.88,-27.2m4.11,2.71c-4.48,4.29 -4.08,11.03 -3.89,16.73c0.06,4.69 2.43,9.12 6.43,11.63c1.77,-0.06 3.55,-0.1 5.34,-0.14c3.64,-1.89 5.21,-5.6 6.24,-9.36c0.3,-3.72 0.25,-7.46 -0.02,-11.18c-0.82,-3.83 -2.58,-7.82 -6.4,-9.46c-2.65,-0.47 -5.81,-0.49 -7.7,1.78z" fill="#ffffff"/>
   <path id="svg_28" d="m606.96,233.63c1.61,-0.01 3.24,-0.01 4.87,-0.01c4.27,10.32 8.08,20.84 12.56,31.08c1.28,3.35 5.14,3.27 8.13,3.06c1.81,-6.16 0.63,-12.72 0.79,-19.05c-1.57,-1 -3.17,-1.96 -4.75,-2.91c1.79,-0.21 3.59,-0.45 5.38,-0.7c2.39,-0.91 4.98,-0.79 7.5,-0.89c-0.24,1.95 0.78,2.82 2.58,2.73c3.5,-4.04 11.42,-4.09 14.04,1c2.12,5.76 0.71,12.01 1.26,17.99c0.75,1.44 2.57,1.99 3.71,3.14c-5.16,0.18 -10.33,0.24 -15.48,-0.05c0.92,-0.67 1.85,-1.33 2.79,-1.98c0.39,-6.06 0.61,-12.2 -0.13,-18.24c-1.3,-3.35 -5,-1.38 -7.59,-1.21c-1.49,6.04 -0.81,12.27 -0.86,18.42c1.29,1.04 2.58,2.08 3.89,3.12c-11.95,0.04 -23.92,0.27 -35.87,-0.13c1.59,-0.69 3.2,-1.33 4.84,-1.91c0.2,-1.73 0.18,-3.52 -0.73,-5.06c-0.7,-1.55 -1.37,-3.12 -1.98,-4.7c-3.82,0.11 -7.67,-0.28 -11.47,0.17c-2.02,2.37 -2.51,5.77 -3.15,8.77c1.72,0.66 3.45,1.32 5.23,1.86l-0.08,1.07c-4.91,-0.01 -9.82,0.03 -14.72,-0.08c2.59,-1.39 5.36,-2.89 6.85,-5.56c0.97,-2.12 1.71,-4.35 2.72,-6.45c2.7,-7.13 5.78,-14.11 8.53,-21.22c0.28,-0.57 0.86,-1.7 1.14,-2.26m-5.65,21.05c3.23,0.01 6.47,0 9.71,-0.03c-0.4,-0.84 -0.81,-1.68 -1.22,-2.51c-1.13,-2.94 -2.23,-5.91 -3.57,-8.76c-2.24,3.47 -3.75,7.35 -4.92,11.3z" fill="#ffffff"/>
   <path id="svg_29" d="m292.63,236.44c2.92,-0.18 5.84,-0.19 8.77,-0.06c-0.05,2.59 -0.08,5.18 -0.09,7.77c2.27,0.42 5.66,-1.01 6.93,1.6c4.73,-0.33 9.34,-1.77 14.12,-1.52c-0.07,6.93 -0.13,13.86 -0.02,20.79c-0.26,2.28 2.56,2.81 3.87,4.08c-5.53,0.15 -11.06,0.12 -16.58,0.03c1.27,-0.96 2.55,-1.92 3.83,-2.88c0.18,-5.86 0.17,-11.71 -0.03,-17.57c-3.36,-3.21 -7.96,-1.83 -12.1,-1.86c0.01,6.07 -0.15,12.14 0.17,18.2c0.53,0.36 1.6,1.07 2.13,1.42c1.85,0.07 3.71,0.18 5.55,0.46c-4.66,2.8 -11.68,3.96 -15.5,-0.79c-1.88,-6.27 -0.9,-12.83 -1.14,-19.27c-1.34,-0.09 -2.68,-0.18 -4.01,-0.28c-0.08,-0.58 -0.24,-1.76 -0.32,-2.34c1.5,-0.02 3.01,-0.03 4.51,-0.04c0.02,-2.58 -0.01,-5.16 -0.09,-7.74z" fill="#ffffff"/>
   <path id="svg_30" d="m744.69,236.48c2.92,-0.23 5.86,-0.24 8.8,-0.12c-0.05,2.61 -0.09,5.23 -0.1,7.84c3.06,-0.04 6.29,-0.39 9.13,1.03c3.97,0.2 7.91,-1.37 11.97,-1.01c-0.19,7.34 -0.07,14.68 -0.1,22.02c1.29,0.95 2.57,1.89 3.87,2.84c-5.5,0.18 -11,0.15 -16.49,0.03c1.26,-0.93 2.53,-1.86 3.8,-2.79c0.13,-5.91 0.12,-11.81 -0.01,-17.71c-1.23,-0.77 -2.52,-1.43 -3.95,-1.67c-0.56,-0.5 -1.12,-1 -1.66,-1.51c-1.01,2.46 -4.47,0.87 -6.52,1.38c-0.01,5.98 -0.18,11.97 0.18,17.94c0.49,0.44 1.48,1.32 1.98,1.76c1.71,0 3.44,0.03 5.17,0.1c-2.92,2.97 -7.77,3.24 -11.55,2.1c-3.01,-0.92 -3.7,-4.1 -4.42,-6.74c-0.37,-5.04 -0.05,-10.09 -0.13,-15.13c-1.97,-0.16 -3.93,-0.33 -5.88,-0.49c-3.86,6.7 -6.34,14.04 -9.45,21.1c-2.07,4.27 -4.25,8.89 -8.47,11.45c-1.78,1.26 -4.09,0.6 -6.1,0.72c-1.07,-1.21 -2.1,-2.44 -3.12,-3.67c0.44,-1.02 0.86,-2.05 1.29,-3.07c3.5,-3.1 7.13,0.89 8.5,4.06c1.37,-1.95 2.74,-3.92 4.12,-5.87c-0.77,-1.75 -1.54,-3.48 -2.36,-5.2c-2.36,-5.26 -4.96,-10.41 -7.36,-15.65c-1.01,-2.5 -3.24,-4.11 -5.12,-5.91c5.35,0.08 10.88,-0.81 16.11,0.5c-1.23,0.59 -2.45,1.18 -3.67,1.76c1.21,3.62 2.92,7.06 4.66,10.46c0.49,1.12 0.97,2.25 1.45,3.39c2.31,-3.96 4.1,-8.24 5.48,-12.61c-1.01,-1.46 -2.73,-2.2 -4.09,-3.25c4.68,-0.75 9.44,-0.25 14.17,-0.37c-0.01,-2.57 -0.05,-5.14 -0.13,-7.71z" fill="#ffffff"/>
   <path id="svg_31" d="m458.44,236.28c2.7,-0.01 5.4,0 8.1,0.03c-0.04,2.61 -0.06,5.23 -0.05,7.86c2.17,0.19 4.69,-0.56 6.59,0.85c1.77,1.22 4.01,0.2 5.97,0.12c2.73,-0.89 5.64,-0.84 8.48,-0.99c-0.09,7.32 -0.15,14.64 -0.01,21.96c1.44,1.06 2.93,2.1 4.47,3.03c-5.65,-0.32 -11.53,0.94 -17.01,-0.67c0.79,-0.31 2.36,-0.93 3.14,-1.24c0.28,-0.56 0.83,-1.68 1.1,-2.24c0.1,-4.98 0.44,-9.99 -0.17,-14.94c-2,-5.22 -8.33,-2.99 -12.55,-3.24c-0.03,5.93 -0.14,11.87 0.15,17.8c0.5,0.47 1.49,1.4 1.98,1.87c1.88,0.01 3.85,-0.15 5.63,0.64c-4.81,2.73 -12.25,3.73 -15.65,-1.64c-0.42,-6.04 -0.4,-12.1 -0.1,-18.14c-1.7,-0.34 -3.41,-0.61 -5.13,-0.81c0.08,-0.47 0.24,-1.41 0.33,-1.89c1.61,-0.34 3.23,-0.69 4.86,-1.03c-0.06,-2.45 -0.1,-4.89 -0.13,-7.33z" fill="#ffffff"/>
   <path id="svg_32" d="m42.85,245.7c5.2,-2.34 11.88,-2.5 16.53,1.16c2.52,1.71 2.37,5.09 3.27,7.7c-5.78,0.17 -11.56,0.17 -17.35,0.2c0.2,4.49 1.25,9.32 5.44,11.76c1.52,0 3.03,0 4.55,0.02c2.54,-1.79 5.16,-3.49 7.3,-5.76c0.22,3.12 -2.48,5.42 -4.97,6.79c-6.08,3.06 -14.55,2.09 -18.93,-3.42c-2.5,-3.07 -2.51,-7.3 -1.89,-11.01c0.79,-3.28 3.45,-5.52 6.05,-7.44m4.97,0.01c-1.69,2.18 -2.13,4.92 -2.55,7.58c2.83,0.02 5.66,0.01 8.49,-0.02c-0.13,-0.83 -0.39,-2.51 -0.52,-3.34c-0.34,-0.98 -0.66,-1.96 -0.97,-2.94c-0.46,-0.4 -1.38,-1.21 -1.84,-1.61c-0.87,0.11 -1.74,0.22 -2.61,0.33z" fill="#ffffff"/>
   <path id="svg_33" d="m66.72,248.93c3.27,-4.93 9.91,-5.22 15.23,-4.67c3.24,0.07 6.47,2.32 7.21,5.54c0.56,5.5 -0.13,11.03 0.29,16.54c1.57,0.1 3.13,0.23 4.7,0.38c-3.31,4.02 -9.66,2.83 -13.26,-0.17c-3.07,1.68 -6.56,3.18 -10.14,2.57c-2.11,-0.56 -3.72,-2.13 -5.35,-3.49c0.08,-1.7 0.15,-3.39 0.21,-5.07c3.67,-5.13 10.54,-5.04 15.85,-7.35c-0.07,-2.72 -0.58,-5.42 -2.12,-7.7c-1.55,0.03 -3.09,0.05 -4.63,0.07c0.8,2.75 0.85,5.86 -1.46,7.9c-1.47,-0.05 -2.93,-0.09 -4.4,-0.1c-1.19,-1.21 -2.88,-2.5 -2.13,-4.45m9.64,9.37c-2.83,1.66 -2.69,5.91 -0.8,8.25c1.36,-0.02 2.73,-0.03 4.09,-0.02c0.4,-0.62 1.19,-1.85 1.59,-2.46c0.04,-2.74 0.06,-5.47 0.02,-8.2c-1.67,0.71 -3.42,1.35 -4.9,2.43z" fill="#ffffff"/>
   <path id="svg_34" d="m94.82,245.98c4.12,-0.84 8.28,-1.85 12.52,-1.78c0.14,0.65 0.41,1.94 0.55,2.58c3.19,-1.19 6.24,-3.16 9.83,-2.53c0.93,1.1 1.87,2.19 2.83,3.28c-0.05,1.64 -0.1,3.29 -0.16,4.94c-0.66,0.68 -1.31,1.38 -1.97,2.07c-2.5,0.55 -4.69,-0.06 -6.14,-2.24c0.05,-1.77 0.09,-3.54 0.14,-5.31c-2.23,0.35 -3.72,1.94 -4.77,3.83c-0.08,4.96 -0.03,9.93 -0.07,14.89c1.65,1.52 3.69,2.46 5.74,3.34c-5.65,0.28 -11.3,0.07 -16.94,0.17l-0.11,-1.07c4.12,-0.58 3.23,-5.11 3.32,-8.15c-0.21,-3.94 0.38,-8.02 -0.6,-11.87c-1.34,-0.81 -2.78,-1.46 -4.17,-2.15z" fill="#ffffff"/>
   <path id="svg_35" d="m258.95,245.12c3.29,-1.13 6.75,-0.81 10.02,0.25c3.61,-0.63 7.45,-2.08 11.02,-0.42c4.5,2.69 6.95,8.13 6.18,13.29c-0.46,4.78 -4.07,9.02 -8.59,10.5c-3.51,1.18 -7.15,-0.12 -10.69,-0.49c0.47,2.81 0.55,5.66 0.52,8.51c1.89,0.8 3.81,1.54 5.75,2.24c-6.19,2.23 -13.26,2.53 -19.45,0.18c1.59,-0.7 3.22,-1.31 4.82,-1.99c0.28,-9.05 0.21,-18.1 0.05,-27.14c0.29,-2.69 -3.11,-2.95 -4.77,-4.16c1.71,-0.28 3.42,-0.52 5.14,-0.77m8.32,1.69c0.13,5.77 -0.08,11.55 0.23,17.32c0.81,0.75 1.63,1.52 2.44,2.29c0.87,0.06 2.61,0.16 3.48,0.21c4.62,-4.53 4.92,-12.31 1.95,-17.8c-1.8,-2.76 -5.34,-1.92 -8.1,-2.02z" fill="#ffffff"/>
   <path id="svg_36" d="m327.02,245.89c4.15,-0.82 8.32,-1.66 12.57,-1.8c0.03,0.95 0.11,2.85 0.15,3.8c2.9,-1.59 5.66,-4.27 9.26,-3.76c3.33,-0.43 5.57,2.4 8.13,3.98c0.91,-0.84 1.82,-1.67 2.73,-2.5c2.95,-1.3 6.38,-2.07 9.52,-0.99c1.76,0.98 2.8,2.78 4.05,4.3c0.38,5.52 0.25,11.04 0.12,16.56c1.32,1.4 2.84,2.59 4.43,3.68c-5.35,-0.1 -10.72,0.41 -16.04,-0.34c1.14,-0.59 2.29,-1.17 3.45,-1.73c0.34,-6.44 0.23,-12.89 -0.12,-19.32c-2.5,-1.63 -5.28,-0.61 -7.68,0.62c-1.92,5.46 -0.59,11.37 -1,17.03c1.13,1.29 2.3,2.54 3.51,3.77c-5.03,-0.04 -10.06,0.13 -15.09,-0.15c1.11,-0.69 2.22,-1.36 3.35,-2.02c0.17,-5.7 0.49,-11.44 -0.05,-17.12c-0.38,-1.52 -1.63,-3.43 -3.42,-3.15c-2.58,-0.33 -4.17,2.08 -5.24,4.04c0.01,4.95 0.06,9.9 -0.04,14.85c1.18,1.18 2.36,2.35 3.57,3.52c-5.1,0.01 -10.19,0.12 -15.28,-0.06c0.9,-1.03 2.05,-1.72 3.44,-2.07c0.58,-5.85 0.23,-11.74 0.22,-17.61c-1.26,-1.48 -2.84,-2.62 -4.54,-3.53z" fill="#ffffff"/>
   <path id="svg_37" d="m378.3,245.83c1.61,-0.24 3.22,-0.44 4.83,-0.66c2.81,-0.79 5.73,-0.92 8.63,-1.03c-0.05,6.66 -0.21,13.33 -0.04,20c-0.24,2.77 2.82,3.8 4.69,5c-5.74,0.02 -11.49,0.21 -17.23,-0.11c1.32,-1.16 4.05,-1.38 4.15,-3.5c0.26,-5.57 0.3,-11.15 -0.08,-16.71c-1.63,-1.03 -3.29,-2.03 -4.95,-2.99z" fill="#ffffff"/>
   <path id="svg_38" d="m398.42,244.16c7.98,0.1 15.97,-0.09 23.95,0.14c-4.53,7.7 -9.86,14.9 -15.15,22.08c3.27,0.22 6.54,0.19 9.82,0c1.53,-2.5 2.99,-5.07 4.97,-7.25c0.15,3.34 0.15,6.7 0.16,10.05c-8.43,-0.01 -16.86,0.07 -25.29,-0.04c3.95,-8.07 9.7,-15.12 14.99,-22.33c-2.64,-0.02 -5.29,-0.22 -7.92,0.08c-2.55,1.07 -3.42,4.03 -5.34,5.86c-0.19,-2.86 -0.19,-5.72 -0.19,-8.59z" fill="#ffffff"/>
   <path id="svg_39" d="m426.15,249.07c1.51,-2.81 4.81,-4.08 7.78,-4.72c4.05,-0.45 8.43,-0.61 12.13,1.42c0.73,0.79 1.47,1.58 2.23,2.36c0.73,5.44 0.22,10.92 0.22,16.38c0.44,0.48 1.32,1.43 1.76,1.9c0.75,0.07 2.26,0.2 3.01,0.27c-2.92,4.4 -10.23,2.69 -13.44,-0.63c-0.5,2.39 -3.37,2.2 -5.22,2.83c-3.09,0.95 -6.12,-0.37 -8.92,-1.56c-0.2,-2.9 -1.43,-6.52 1.12,-8.78c3.98,-3.14 9.38,-3.02 13.76,-5.34c-0.04,-1.9 -0.08,-3.79 -0.12,-5.68c-0.65,-0.66 -1.3,-1.31 -1.93,-1.95c-1.4,-0.01 -2.8,-0.01 -4.18,-0.01c0.02,2.06 0.6,4.25 -0.11,6.24c-1.15,2.07 -3.68,1.47 -5.61,1.77c-1.27,-1.21 -3.05,-2.47 -2.48,-4.5m7.38,15.36c0.62,0.67 1.25,1.34 1.88,2.02c1.01,0.03 2.02,0.07 3.04,0.11c0.69,-0.68 1.38,-1.36 2.07,-2.03c0.05,-2.94 0.04,-5.88 -0.05,-8.82c-3.66,1.49 -7.88,4.11 -6.94,8.72z" fill="#ffffff"/>
   <path id="svg_40" d="m501.99,244.94c4.64,-1.32 9.72,-1.2 14.19,0.69c5.94,3.1 8.42,10.85 5.15,16.75c-5.49,9.57 -22.08,9.27 -26.75,-0.93c-2.86,-6.4 0.9,-14.22 7.41,-16.51m1.57,3.95c-1.13,5.1 -0.93,10.3 -0.04,15.42c0.92,1.14 1.85,2.27 2.79,3.41c1.37,0.01 2.75,0.01 4.13,0.01c4.6,-5.5 3.67,-13.48 1.87,-19.91c-0.78,-0.73 -1.54,-1.46 -2.29,-2.19c-0.85,-0.06 -2.56,-0.18 -3.41,-0.23c-1.05,1.14 -2.04,2.32 -3.05,3.49z" fill="#ffffff"/>
   <path id="svg_41" d="m529.98,245.21c2.68,-0.98 5.56,-0.92 8.38,-0.89c0.09,0.91 0.27,2.73 0.36,3.63c2.66,-2.15 5.66,-4.36 9.32,-3.8c3.53,-0.45 6.43,2.59 7.29,5.75c0.71,5.2 -0.21,10.47 0.42,15.67c0.8,1.83 2.85,2.53 4.39,3.58c-5.39,0.02 -10.77,0.16 -16.15,-0.07c1.1,-1.34 3.55,-2.01 3.38,-4.09c0.08,-4.72 0.14,-9.45 -0.13,-14.16c-0.33,-1.03 -0.63,-2.05 -0.92,-3.07c-2.51,-1.91 -5.35,-0.41 -7.64,1.03c-0.47,5.83 -0.17,11.67 -0.21,17.51c1.17,0.92 2.34,1.84 3.51,2.78c-5.39,0.14 -10.8,0.26 -16.18,-0.08c1.2,-0.7 2.42,-1.38 3.66,-2.02c0.45,-6.1 0.25,-12.23 0.13,-18.33c-1.38,-0.93 -2.71,-1.92 -3.95,-3c1.44,-0.15 2.89,-0.3 4.34,-0.44z" fill="#ffffff"/>
   <path id="svg_42" d="m672.01,244.98c3.87,-1.26 8.05,-1.05 12.01,-0.39c2.66,0.52 4.13,2.94 5.46,5.06c-0.04,5.56 -0.21,11.13 0.02,16.69c1.58,0.15 3.17,0.32 4.77,0.52c-2.04,1.77 -4.65,2.77 -7.37,2.43c-3.04,0.19 -4.45,-3.53 -7.62,-3.11l0.35,1.36c-3.63,1.21 -7.94,2.87 -11.46,0.52c-2.75,-1.41 -3.07,-4.81 -2.36,-7.48c1.98,-3.75 6.51,-4.43 10.18,-5.6c1.88,-0.52 3.72,-1.18 5.56,-1.84c-0.06,-0.59 -0.19,-1.76 -0.26,-2.34c-0.45,-1.55 -0.56,-3.25 -1.31,-4.68c-1.42,-1 -3.39,-0.32 -5.02,-0.57c-0.09,2.06 -0.17,4.13 -0.28,6.19c-0.39,0.4 -1.16,1.21 -1.55,1.61c-1.46,0.01 -2.92,0.03 -4.36,0.06c-1.04,-1.32 -2.63,-2.57 -2.18,-4.47c1.13,-2.09 3.42,-2.95 5.42,-3.96m2.72,15.03c-1.23,2.21 -0.42,4.76 0.81,6.76c2.01,-0.32 3.95,-0.94 5.86,-1.65c-0.03,-3.04 -0.03,-6.09 -0.02,-9.13c-2.51,0.72 -5.15,1.75 -6.65,4.02z" fill="#ffffff"/>
   <path id="svg_43" d="m789.01,244.99c4.04,-1.37 8.71,-1.35 12.58,0.59c1,0.98 2.02,1.94 3.07,2.89c0.3,2.34 -0.22,4.56 -1.93,6.24c-1.69,-0.05 -3.35,-0.09 -5.01,-0.13c-1.91,-2.8 -1.31,-6.18 -1.05,-9.33c-3.02,-0.12 -6.03,1.88 -6.54,4.96c-1.89,5.76 -1.01,12.91 4.52,16.36c0.92,-0.01 2.77,-0.01 3.69,-0.01c2.16,-1.25 4.12,-2.82 5.7,-4.76c0.43,-0.11 1.3,-0.31 1.73,-0.41c-2.24,7.95 -12.79,9.73 -19.3,6.08c-7.21,-3.33 -8.19,-14.34 -2.39,-19.42c1.39,-1.37 3.23,-2.12 4.93,-3.06z" fill="#ffffff"/>
   <path id="svg_44" d="m811.8,245.62c5.29,-2.81 11.23,-0.55 16.86,-1.17c0.04,2.75 -0.01,5.5 -0.16,8.26c-1.65,-2.79 -3.83,-5.15 -6.29,-7.23c-1.44,0.03 -2.88,0.05 -4.3,0.08c-0.8,1 -1.59,2 -2.36,3c0.01,0.41 0.02,1.22 0.03,1.63c2.72,2.14 6.12,2.92 9.35,3.97c2.79,1.19 5.78,3.53 5.55,6.91c0.18,3.62 -3.06,6.41 -6.25,7.41c-5.42,2.02 -11.06,-0.86 -16.6,0.21c0,-2.92 -0.06,-5.84 -0.15,-8.75c0.42,0.16 1.26,0.47 1.68,0.62c1.9,2.47 3.84,5.02 6.4,6.86c1.83,0.7 3.88,0.21 5.82,0.25c1.23,-1.77 1.76,-3.85 1.16,-5.96c-4.55,-2.17 -10.65,-2.15 -13.52,-6.9c-1.69,-3.31 0.05,-7.05 2.78,-9.19z" fill="#ffffff"/>
   <path id="svg_45" d="m131.02,245.01c4.11,-1.41 8.72,-1.26 12.69,0.52c1.17,1.38 3.23,2.45 3.08,4.52c0.23,1.72 -0.87,3.14 -1.6,4.59c-1.82,-0.02 -3.64,-0.04 -5.46,-0.07c-1.78,-2.72 -1.39,-5.95 -0.86,-8.98c-0.79,-0.02 -2.36,-0.07 -3.15,-0.09c-1.03,0.96 -2.05,1.93 -3.06,2.91c-1,3.95 -2.06,8.18 -0.63,12.17c0.67,2.58 2.82,4.28 4.67,6.02c1.44,-0.06 2.87,-0.12 4.31,-0.17c2.27,-1.78 4.4,-3.73 6.67,-5.52c-0.46,4.78 -5.12,7.61 -9.49,8.22c-4.05,0.52 -8.31,-0.47 -11.61,-2.89c-4.83,-3.9 -5.64,-11.77 -1.8,-16.62c1.56,-2.15 3.94,-3.42 6.24,-4.61z" fill="#ffffff"/>
   <path id="svg_46" d="m188.46,260.56c2.29,-1.81 5.03,-0.05 7.05,1.27c0.04,1.81 0.06,3.62 0.05,5.43c-2.14,1.62 -5.48,3.16 -7.66,0.77c-2.69,-1.73 -2.15,-6.03 0.56,-7.47z" fill="#ffffff"/>
   <path id="svg_47" d="m563.5,261.86c2.11,-1.55 5.27,-3.22 7.51,-0.92c2.3,1.29 1.8,3.98 1.56,6.16c-1.09,0.7 -2.16,1.42 -3.23,2.14c-0.75,-0.02 -2.24,-0.06 -2.99,-0.08c-0.95,-0.7 -1.91,-1.39 -2.86,-2.08c-0.03,-1.74 -0.02,-3.49 0.01,-5.22z" fill="#ffffff"/>
   <path id="svg_48" d="m836.69,260.87c1.92,-0.55 4.08,-1.67 6,-0.45c1.19,0.9 2.02,2.19 3.02,3.3c-0.27,3.56 -3.96,6.95 -7.51,5.03c-3.32,-1.24 -3.06,-5.32 -1.51,-7.88z" fill="#ffffff"/>
  </g>
 </g>
</svg>