<svg xmlns="http://www.w3.org/2000/svg" width="1151.9828" height="186.62752"><metadata id="metadata7">image/svg+xml</metadata><g><title>background</title><rect fill="none" id="canvas_background" height="402" width="582" y="-1" x="-1"/></g><g><title>Layer 1</title><g id="layer1"><text font-size="40px" font-style="normal" font-weight="normal" fill="#ffffff" font-family="Avance" id="text2985" y="140.884584" x="70.336714" xml:space="preserve"><tspan font-size="100px" font-weight="bold" fill="#ffffff" y="140.884584" x="70.336714" id="tspan2987">Droid      INDUSTRIES</tspan></text><g fill="#ffffff" transform="matrix(1.9882985,0,0,1.9882985,3.4360391,139.82566) " id="g3397"><path fill="#ffffff" d="m198.59777-31.579051c-9.66498 0-17.5 15.67003-17.5 35l35 0c0-19.32997-7.83502-35-17.5-35zm0 4c7.73199 0 14 12.53603 14 28l-28 0c0-15.46397 6.26801-28 14-28z" id="path3056-9"/><path fill="#ffffff" d="m184.59777-15.516551c-6.53213 1.17346-11.15625 4.05994-11.15625 7.4375 0 3.37756 4.62412 6.26404 11.15625 7.4375l0-3.5625c-3.8643-0.4271-6.75-1.99389-6.75-3.875 0-1.88111 2.8857-3.4479 6.75-3.875l0-3.5625z" id="path3301"/><path fill="#ffffff" id="path3327" d="m213.06652-15.516551c6.53213 1.17346 11.15625 4.05994 11.15625 7.4375 0 3.37756-4.62412 6.26404-11.15625 7.4375l0-3.5625c3.8643-0.4271 6.75-1.99389 6.75-3.875 0-1.88111-2.8857-3.4479-6.75-3.875l0-3.5625z"/><path fill="#ffffff" d="m198.41455-50.206571c-4.01531 0-7.25 1.95186-7.25 4.375l0 16.34375c0 0.29255 0.0663 0.56755 0.15625 0.84375l14.21875 0c0.09-0.2762 0.125-0.5512 0.125-0.84375l0-16.34375c0-2.42314-3.23469-4.375-7.25-4.375zm0 3.8125c1.35327 0 2.4375 2.47905 2.4375 5.5625l0 6.34375c0 3.08344-1.08423 5.59375-2.4375 5.59375 -1.35327 0-2.4375-2.51031-2.4375-5.59375l0-6.34375c0-3.08345 1.08423-5.5625 2.4375-5.5625z" id="rect3329"/><rect fill="#ffffff" id="rect3359" width="5.012247" height="5.012247" x="191.35727" y="-10.845141"/><rect fill="#ffffff" id="rect3359-7" width="5.012247" height="5.012247" x="200.41977" y="-10.845141"/></g></g></g></svg>