<?xml version="1.0" encoding="UTF-8" ?>
<!DOCTYPE svg PUBLIC "-//W3C//DTD SVG 1.1//EN" "http://www.w3.org/Graphics/SVG/1.1/DTD/svg11.dtd">
<svg width="1288pt" height="281pt" viewBox="0 0 1288 281" version="1.1" xmlns="http://www.w3.org/2000/svg">
<g id="#000000ff">
<path fill="#000000" opacity="1.00" d=" M 420.90 0.00 L 452.65 0.00 C 457.31 3.21 463.10 6.82 463.73 13.01 C 464.56 39.24 463.59 65.49 464.09 91.72 C 479.37 106.78 489.49 126.38 495.41 146.84 C 501.57 148.78 507.88 150.18 514.07 152.01 C 522.67 154.57 531.68 158.31 537.10 165.83 C 540.76 173.64 540.76 184.73 533.72 190.71 C 524.99 197.26 514.09 199.55 503.91 202.87 C 504.05 208.58 503.97 214.29 504.00 220.00 C 458.70 220.00 413.40 220.01 368.10 219.99 C 367.99 214.18 367.90 208.38 367.76 202.57 C 357.61 199.61 346.86 197.21 338.28 190.67 C 331.76 185.52 331.55 175.99 333.68 168.63 C 335.04 163.91 339.30 160.88 343.16 158.25 C 353.19 152.06 365.08 150.41 376.21 147.13 C 382.62 126.71 392.41 106.81 407.89 91.71 C 408.33 63.73 407.37 35.73 408.53 7.76 C 412.65 5.18 416.66 2.41 420.90 0.00 M 431.39 18.57 C 425.76 35.52 428.46 53.57 428.05 71.06 C 428.92 76.56 434.94 78.56 439.12 81.11 C 443.31 72.72 444.64 63.22 444.65 53.92 C 444.66 41.65 442.68 29.51 441.76 17.30 C 438.30 17.73 434.84 18.15 431.39 18.57 M 428.24 105.18 C 416.79 112.70 408.14 124.00 402.35 136.32 C 393.18 156.11 390.72 178.40 391.99 199.99 C 421.33 199.98 450.66 199.99 480.00 199.99 C 481.14 179.82 478.70 159.28 471.80 140.24 C 466.34 130.13 460.89 119.61 452.31 111.74 C 446.00 105.89 436.67 102.60 428.24 105.18 M 354.15 174.83 C 356.14 177.82 358.11 180.83 360.14 183.80 C 362.44 184.44 364.75 185.09 367.06 185.73 C 369.04 179.70 370.69 173.56 371.83 167.32 C 365.14 166.72 357.83 168.81 354.15 174.83 M 500.26 167.40 C 501.40 173.51 502.85 179.57 504.62 185.54 C 507.04 184.97 509.47 184.40 511.91 183.84 C 513.90 180.82 515.84 177.76 517.81 174.72 C 514.05 168.89 506.90 166.69 500.26 167.40 Z" />
<path fill="#000000" opacity="1.00" d=" M 649.04 135.04 C 656.20 134.93 663.36 134.77 670.51 134.60 C 671.45 161.73 670.65 188.87 670.95 216.00 C 660.76 216.19 650.56 216.29 640.37 216.18 C 632.40 198.55 625.17 180.60 617.01 163.06 C 616.99 180.79 617.10 198.51 617.04 216.24 C 610.37 216.16 603.70 216.07 597.03 216.01 C 596.78 195.04 597.61 174.04 596.68 153.09 C 595.03 147.83 588.54 147.30 584.01 146.01 C 583.98 142.32 583.97 138.63 583.97 134.93 C 597.37 134.88 610.76 134.89 624.16 135.01 C 632.23 155.27 640.63 175.41 649.29 195.43 C 648.83 175.30 649.11 155.17 649.04 135.04 Z" />
<path fill="#000000" opacity="1.00" d=" M 870.43 136.64 C 877.30 134.20 884.71 133.45 891.97 133.87 C 901.53 134.49 911.56 137.54 918.17 144.83 C 921.55 148.43 923.45 153.10 924.54 157.86 C 919.51 157.89 914.49 157.91 909.47 157.82 C 903.64 152.55 896.14 147.99 887.97 148.89 C 885.46 149.31 882.32 149.53 880.85 151.94 C 879.17 154.55 879.42 158.94 882.57 160.31 C 891.62 164.45 901.94 164.75 910.89 169.15 C 917.21 172.19 922.22 178.10 923.70 185.01 C 925.67 194.58 921.57 204.98 913.91 210.94 C 907.65 215.55 899.63 217.26 891.98 217.25 C 878.67 217.02 866.18 211.48 854.81 205.01 C 854.91 197.76 854.84 190.50 855.05 183.25 C 857.45 183.11 859.99 182.73 862.29 183.73 C 869.50 186.75 872.50 195.40 880.02 197.96 C 883.77 198.91 887.88 200.08 891.66 198.57 C 895.20 197.23 897.90 194.46 900.49 191.81 C 889.23 183.74 874.51 184.06 862.64 177.33 C 856.90 174.14 853.78 167.40 853.89 160.98 C 854.06 150.62 860.76 140.51 870.43 136.64 Z" />
<path fill="#000000" opacity="1.00" d=" M 1239.01 135.24 C 1251.15 132.68 1264.63 133.10 1275.61 139.41 C 1282.32 143.22 1286.88 150.17 1287.99 157.78 C 1283.11 157.58 1278.16 158.07 1273.34 157.26 C 1269.99 155.49 1267.16 152.88 1263.75 151.23 C 1258.88 148.60 1252.89 148.02 1247.67 149.81 C 1244.16 151.08 1242.30 156.26 1244.95 159.03 C 1255.12 164.37 1267.23 164.81 1277.18 170.74 C 1282.39 173.71 1286.28 178.72 1288.00 184.46 L 1288.00 194.92 C 1285.68 202.30 1281.33 209.54 1274.31 213.25 C 1266.53 217.19 1257.46 218.09 1248.93 216.68 C 1238.21 214.93 1228.25 210.27 1218.77 205.17 C 1218.85 198.04 1218.90 190.92 1218.98 183.80 C 1222.42 183.98 1225.87 184.17 1229.32 184.41 C 1233.88 192.90 1243.07 199.60 1253.03 198.66 C 1257.93 198.34 1262.09 195.36 1265.39 191.92 C 1253.41 184.75 1238.99 183.69 1226.71 177.22 C 1221.17 174.38 1218.10 168.07 1217.89 162.02 C 1217.51 149.68 1226.71 137.47 1239.01 135.24 Z" />
<path fill="#000000" opacity="1.00" d=" M 2.21 134.93 C 21.14 135.36 40.11 133.97 59.01 135.56 C 68.40 136.34 77.05 141.82 82.30 149.56 C 92.10 164.04 93.10 184.23 84.45 199.48 C 79.31 208.63 69.13 213.75 59.09 215.48 C 44.20 218.04 29.11 215.27 14.13 216.15 C 14.02 196.76 14.24 177.38 14.17 158.00 C 14.05 155.96 14.55 153.59 13.16 151.87 C 10.82 148.98 6.81 148.41 4.08 146.05 C 3.15 142.40 2.87 138.63 2.21 134.93 M 37.28 152.65 C 36.94 168.52 35.64 184.37 35.93 200.25 C 44.22 199.68 53.49 200.84 60.62 195.66 C 66.63 191.58 69.48 184.16 69.26 177.08 C 69.04 170.28 67.72 162.46 61.83 158.19 C 54.78 153.05 45.63 153.07 37.28 152.65 Z" />
<path fill="#000000" opacity="1.00" d=" M 234.36 135.43 C 241.75 133.46 249.34 141.66 247.09 148.89 C 245.71 152.72 242.26 156.27 237.98 156.39 C 231.38 156.48 225.01 149.74 226.69 143.08 C 227.94 139.61 230.88 136.65 234.36 135.43 Z" />
<path fill="#000000" opacity="1.00" d=" M 674.28 135.05 C 689.83 135.04 705.37 134.64 720.92 134.91 C 728.31 135.17 736.09 134.82 742.94 138.11 C 753.19 142.77 759.91 152.97 762.65 163.62 C 765.67 175.27 764.77 188.24 758.80 198.84 C 754.49 206.57 746.90 212.44 738.22 214.34 C 721.72 218.15 704.73 215.52 688.00 216.05 C 687.94 194.50 688.02 172.95 687.98 151.40 C 683.40 149.61 678.16 148.00 675.27 143.71 C 673.50 141.16 673.98 137.94 674.28 135.05 M 711.12 152.64 C 710.79 168.53 709.48 184.39 709.80 200.29 C 718.13 199.69 727.42 200.84 734.61 195.68 C 740.46 191.89 743.10 184.76 743.08 178.02 C 743.00 171.57 742.51 164.18 737.36 159.59 C 730.31 153.17 720.14 152.78 711.12 152.64 Z" />
<path fill="#000000" opacity="1.00" d=" M 826.11 134.91 C 833.40 134.91 840.69 134.93 847.98 134.92 C 847.87 152.96 848.18 171.00 847.97 189.04 C 847.94 203.40 835.79 217.39 821.06 217.51 C 810.08 217.45 798.15 219.45 788.11 213.85 C 782.22 210.76 779.57 204.16 778.14 198.03 C 775.22 184.36 778.64 170.26 776.37 156.53 C 774.54 152.48 769.75 151.38 766.07 149.66 C 765.90 145.26 765.82 140.86 765.72 136.45 C 776.79 135.84 787.88 135.90 798.96 136.04 C 798.60 155.05 799.50 174.05 800.41 193.04 C 800.09 198.10 805.64 201.00 810.02 201.32 C 816.96 202.03 825.68 197.73 826.03 190.02 C 826.41 171.65 825.94 153.28 826.11 134.91 Z" />
<path fill="#000000" opacity="1.00" d=" M 928.00 134.92 C 951.01 134.92 974.03 134.90 997.04 134.94 C 997.04 140.59 997.04 146.23 997.07 151.88 C 989.18 151.94 981.30 152.07 973.43 152.49 C 974.28 173.77 973.68 195.07 973.86 216.36 C 966.21 216.26 958.56 216.17 950.92 216.10 C 950.90 194.46 950.94 172.81 950.92 151.17 C 944.66 150.80 940.90 156.15 936.57 159.66 C 934.24 161.74 931.05 162.01 928.07 161.87 C 927.90 152.89 928.00 143.90 928.00 134.92 Z" />
<path fill="#000000" opacity="1.00" d=" M 1002.29 134.93 C 1023.73 136.06 1045.79 131.93 1066.71 138.33 C 1080.66 142.85 1086.22 161.61 1078.71 173.72 C 1076.98 176.74 1074.23 178.96 1071.43 180.94 C 1074.98 187.51 1077.10 195.09 1082.52 200.47 C 1085.21 203.27 1089.04 204.33 1092.78 204.79 C 1093.03 208.49 1092.22 212.67 1088.90 214.82 C 1083.01 218.63 1075.24 218.15 1068.82 216.11 C 1061.07 210.33 1060.39 199.62 1054.68 192.33 C 1049.73 187.58 1042.36 187.83 1035.99 187.45 C 1035.98 197.01 1035.99 206.57 1035.99 216.13 C 1028.70 216.19 1021.40 216.26 1014.11 216.33 C 1013.76 195.52 1014.72 174.69 1013.83 153.89 C 1012.91 148.27 1006.11 147.70 1001.83 145.82 C 1001.95 142.19 1002.11 138.56 1002.29 134.93 M 1036.20 147.46 C 1036.03 155.82 1035.96 164.18 1035.96 172.55 C 1041.68 171.97 1047.80 171.83 1052.89 168.81 C 1059.26 165.13 1058.70 153.96 1051.97 150.94 C 1047.08 148.51 1041.50 148.30 1036.20 147.46 Z" />
<path fill="#000000" opacity="1.00" d=" M 1134.29 134.90 C 1160.19 134.94 1186.08 134.91 1211.98 134.92 C 1211.99 139.64 1211.99 144.36 1211.98 149.08 C 1196.59 149.08 1181.18 148.77 1165.79 149.47 C 1167.35 154.36 1167.24 161.74 1173.14 163.52 C 1183.75 164.67 1194.40 162.98 1205.03 162.67 C 1205.03 169.08 1205.04 175.50 1205.07 181.91 C 1193.97 182.20 1182.73 180.69 1171.76 182.83 C 1166.43 185.33 1166.87 194.37 1172.38 196.42 C 1184.85 197.81 1197.45 196.85 1209.98 196.96 C 1209.90 203.27 1209.89 209.57 1209.90 215.88 C 1189.26 216.43 1168.61 216.05 1147.97 216.05 C 1148.17 194.82 1147.93 173.54 1146.40 152.36 C 1144.41 147.47 1138.03 147.70 1133.78 146.07 C 1133.92 142.34 1134.09 138.62 1134.29 134.90 Z" />
<path fill="#000000" opacity="1.00" d=" M 293.04 135.11 C 299.75 137.61 306.44 140.15 313.12 142.74 C 313.09 161.84 312.93 180.94 313.03 200.03 C 313.70 204.34 318.13 206.41 321.92 207.35 C 321.89 210.32 321.84 213.29 321.78 216.27 C 304.58 216.12 287.34 215.38 270.17 216.75 C 265.94 217.24 262.37 214.16 259.49 211.46 C 251.32 202.70 250.21 189.38 253.20 178.23 C 255.28 170.86 259.52 162.88 267.37 160.51 C 276.26 157.93 285.50 161.45 293.15 165.92 C 293.00 155.65 293.05 145.38 293.04 135.11 M 277.76 172.77 C 271.59 182.71 271.76 197.46 281.07 205.47 C 283.59 204.92 286.26 204.05 287.73 201.75 C 291.01 196.87 291.04 190.70 290.99 185.04 C 291.02 179.58 289.27 173.50 284.63 170.23 C 282.09 168.48 279.07 170.47 277.76 172.77 Z" />
<path fill="#000000" opacity="1.00" d=" M 546.16 135.99 C 556.73 135.98 567.29 135.99 577.86 135.99 C 577.87 162.74 577.86 189.50 577.86 216.26 C 571.28 216.25 564.70 216.23 558.12 216.21 C 557.90 195.49 558.53 174.75 557.91 154.03 C 556.79 148.71 550.33 148.05 545.99 146.77 C 546.03 143.17 546.09 139.58 546.16 135.99 Z" />
<path fill="#000000" opacity="1.00" d=" M 1095.99 136.00 C 1106.65 136.00 1117.32 135.98 1127.99 135.99 C 1127.99 162.73 1127.99 189.48 1127.98 216.23 C 1121.32 216.19 1114.66 216.15 1108.00 216.13 C 1107.77 195.12 1108.40 174.09 1107.74 153.09 C 1106.20 148.26 1100.05 148.37 1095.99 147.10 C 1095.97 143.40 1095.97 139.70 1095.99 136.00 Z" />
<path fill="#000000" opacity="1.00" d=" M 178.25 157.34 C 193.27 154.75 209.32 164.09 214.75 178.28 C 219.40 190.42 214.20 205.35 203.18 212.18 C 187.66 222.28 163.28 219.02 153.80 202.17 C 146.56 191.14 149.82 175.88 158.87 166.90 C 163.92 161.44 171.08 158.67 178.25 157.34 M 181.10 170.14 C 176.30 172.56 173.51 177.76 172.99 182.97 C 172.05 191.57 174.77 200.42 179.95 207.30 C 183.51 206.16 187.07 204.48 189.39 201.41 C 196.65 192.13 195.35 176.41 185.30 169.61 C 184.00 168.35 182.40 169.58 181.10 170.14 Z" />
<path fill="#000000" opacity="1.00" d=" M 101.19 164.08 C 111.54 157.79 124.18 157.64 135.87 158.76 C 144.36 159.52 148.57 170.61 144.75 177.59 C 142.22 182.15 135.78 182.32 131.56 180.31 C 126.75 177.23 126.41 170.82 126.58 165.68 C 124.90 167.92 122.17 169.83 122.30 172.94 C 120.97 187.34 122.29 201.79 121.88 216.21 C 111.46 216.23 101.04 216.27 90.63 215.90 C 91.35 209.10 100.70 208.29 101.27 201.54 C 103.06 189.08 100.07 176.57 101.19 164.08 Z" />
<path fill="#000000" opacity="1.00" d=" M 227.99 159.99 C 233.95 159.98 239.90 159.98 245.86 160.00 C 245.86 178.77 245.85 197.54 245.85 216.31 C 236.96 216.23 228.06 216.24 219.17 216.04 C 219.38 213.30 219.46 210.38 221.03 208.00 C 222.49 205.46 225.18 204.10 227.71 202.86 C 228.16 188.57 227.95 174.28 227.99 159.99 Z" />
<path fill="#000000" opacity="1.00" d=" M 408.00 163.99 C 414.66 163.98 421.33 163.98 428.00 164.00 C 427.98 170.66 427.99 177.33 427.99 183.99 C 421.32 183.99 414.65 183.99 407.99 183.99 C 407.98 177.32 407.97 170.66 408.00 163.99 Z" />
<path fill="#000000" opacity="1.00" d=" M 444.00 163.99 C 450.66 163.98 457.33 163.98 464.00 164.00 C 463.98 170.66 463.99 177.33 463.99 183.99 C 457.32 183.99 450.65 183.99 443.99 183.99 C 443.98 177.32 443.97 170.65 444.00 163.99 Z" />
</g>
<g id="#616161fe">
<path fill="#616161" opacity="1.00" d=" M 147.78 232.68 C 152.02 231.60 156.38 231.03 160.77 230.93 C 160.71 236.19 160.78 241.45 160.64 246.72 C 161.45 246.72 162.27 246.72 163.09 246.72 C 165.84 244.12 169.94 243.61 173.49 244.54 C 178.17 246.73 178.74 252.75 178.10 257.27 C 177.28 261.59 177.91 266.76 182.08 269.17 C 176.77 269.22 171.47 269.15 166.16 269.22 C 167.56 268.10 169.78 267.24 169.50 265.04 C 169.78 259.63 169.99 254.14 169.21 248.75 C 167.76 245.30 163.75 247.14 161.50 248.67 C 160.34 254.43 160.00 260.56 161.55 266.28 C 162.41 267.23 163.27 268.19 164.13 269.16 C 159.03 269.17 153.93 269.30 148.83 269.08 C 150.02 268.13 151.26 267.23 152.38 266.18 C 152.42 256.00 152.57 245.81 152.30 235.63 C 150.82 234.60 149.30 233.63 147.78 232.68 Z" />
<path fill="#616161" opacity="1.00" d=" M 315.07 230.93 C 316.72 230.99 318.38 231.05 320.05 231.12 C 320.89 232.80 321.73 234.47 322.64 236.11 C 321.28 238.72 318.96 240.75 315.84 240.45 C 314.48 239.18 312.29 238.21 312.29 236.06 C 312.06 233.93 313.92 232.48 315.07 230.93 Z" />
<path fill="#616161" opacity="1.00" d=" M 381.31 236.05 C 382.44 234.32 383.57 232.59 384.72 230.87 C 386.96 230.96 389.81 230.60 390.94 233.08 C 393.41 235.98 390.50 240.45 387.04 240.30 C 384.28 240.55 382.80 237.87 381.31 236.05 Z" />
<path fill="#616161" opacity="1.00" d=" M 480.11 231.11 C 481.73 231.07 483.36 231.04 484.99 231.01 C 486.49 233.08 489.11 236.16 486.48 238.45 C 484.53 241.19 481.00 240.32 478.56 238.82 C 476.49 236.06 478.32 233.35 480.11 231.11 Z" />
<path fill="#616161" opacity="1.00" d=" M 693.87 232.90 C 698.22 231.24 702.93 230.91 707.56 231.07 C 707.02 242.81 707.47 254.56 707.33 266.31 C 708.71 267.24 710.09 268.17 711.48 269.11 C 705.89 269.19 700.30 269.35 694.72 269.00 C 695.87 268.23 697.12 267.61 698.44 267.15 C 698.86 256.70 698.74 246.24 698.54 235.79 C 696.99 234.81 695.43 233.84 693.87 232.90 Z" />
<path fill="#616161" opacity="1.00" d=" M 767.15 231.00 C 768.77 231.01 770.39 231.01 772.03 231.02 C 772.94 232.71 773.84 234.41 774.79 236.09 C 773.78 237.66 772.59 239.08 771.20 240.31 C 770.37 240.30 768.71 240.29 767.88 240.28 C 766.68 239.30 765.20 238.53 764.50 237.09 C 763.64 234.60 765.86 232.81 767.15 231.00 Z" />
<path fill="#616161" opacity="1.00" d=" M 12.35 234.21 C 18.28 232.00 24.59 235.84 30.44 233.51 C 30.54 237.75 30.63 241.99 30.32 246.21 C 26.65 242.55 24.15 235.67 17.96 236.22 C 13.78 235.40 9.87 241.42 13.61 244.30 C 19.06 248.10 26.65 247.69 31.29 252.86 C 32.72 255.43 32.95 258.33 32.58 261.20 C 30.79 264.64 27.82 267.54 23.95 268.42 C 17.41 270.72 10.62 267.35 4.00 268.81 C 4.04 264.25 3.79 259.68 4.33 255.15 C 6.53 259.52 9.58 263.77 14.04 266.05 C 17.03 266.94 20.88 267.06 23.21 264.62 C 24.89 263.14 25.42 259.97 23.39 258.56 C 20.15 255.93 15.84 255.39 12.08 253.81 C 7.93 252.29 3.06 249.04 3.93 243.94 C 3.23 238.94 8.22 235.60 12.35 234.21 Z" />
<path fill="#616161" opacity="1.00" d=" M 224.08 235.51 C 229.06 233.45 234.81 232.76 239.96 234.61 C 245.96 236.31 251.02 241.41 252.26 247.59 C 253.06 251.45 252.45 255.48 250.91 259.08 C 245.14 271.20 226.65 272.66 218.20 262.71 C 210.74 254.61 214.18 240.00 224.08 235.51 M 228.19 238.22 C 223.71 242.51 224.11 249.25 224.30 254.95 C 224.36 259.64 226.73 264.07 230.73 266.58 C 232.50 266.52 234.28 266.48 236.07 266.44 C 239.71 264.55 241.28 260.84 242.31 257.08 C 242.61 253.36 242.56 249.62 242.29 245.90 C 241.47 242.07 239.71 238.08 235.89 236.44 C 233.24 235.97 230.08 235.95 228.19 238.22 Z" />
<path fill="#616161" opacity="1.00" d=" M 606.96 233.63 C 608.57 233.62 610.20 233.62 611.83 233.62 C 616.10 243.94 619.91 254.46 624.39 264.70 C 625.67 268.05 629.53 267.97 632.52 267.76 C 634.33 261.60 633.15 255.04 633.31 248.71 C 631.74 247.71 630.14 246.75 628.56 245.80 C 630.35 245.59 632.15 245.35 633.94 245.10 C 636.33 244.19 638.92 244.31 641.44 244.21 C 641.20 246.16 642.22 247.03 644.02 246.94 C 647.52 242.90 655.44 242.85 658.06 247.94 C 660.18 253.70 658.77 259.95 659.32 265.93 C 660.07 267.37 661.89 267.92 663.03 269.07 C 657.87 269.25 652.70 269.31 647.55 269.02 C 648.47 268.35 649.40 267.69 650.34 267.04 C 650.73 260.98 650.95 254.84 650.21 248.80 C 648.91 245.45 645.21 247.42 642.62 247.59 C 641.13 253.63 641.81 259.86 641.76 266.01 C 643.05 267.05 644.34 268.09 645.65 269.13 C 633.70 269.17 621.73 269.40 609.78 269.00 C 611.37 268.31 612.98 267.67 614.62 267.09 C 614.82 265.36 614.80 263.57 613.89 262.03 C 613.19 260.48 612.52 258.91 611.91 257.33 C 608.09 257.44 604.24 257.05 600.44 257.50 C 598.42 259.87 597.93 263.27 597.29 266.27 C 599.01 266.93 600.74 267.59 602.52 268.13 L 602.44 269.20 C 597.53 269.19 592.62 269.23 587.72 269.12 C 590.31 267.73 593.08 266.23 594.57 263.56 C 595.54 261.44 596.28 259.21 597.29 257.11 C 599.99 249.98 603.07 243.00 605.82 235.89 C 606.10 235.32 606.68 234.19 606.96 233.63 M 601.31 254.68 C 604.54 254.69 607.78 254.68 611.02 254.65 C 610.62 253.81 610.21 252.97 609.80 252.14 C 608.67 249.20 607.57 246.23 606.23 243.38 C 603.99 246.85 602.48 250.73 601.31 254.68 Z" />
<path fill="#616161" opacity="1.00" d=" M 292.63 236.44 C 295.55 236.26 298.47 236.25 301.40 236.38 C 301.35 238.97 301.32 241.56 301.31 244.15 C 303.58 244.57 306.97 243.14 308.24 245.75 C 312.97 245.42 317.58 243.98 322.36 244.23 C 322.29 251.16 322.23 258.09 322.34 265.02 C 322.08 267.30 324.90 267.83 326.21 269.10 C 320.68 269.25 315.15 269.22 309.63 269.13 C 310.90 268.17 312.18 267.21 313.46 266.25 C 313.64 260.39 313.63 254.54 313.43 248.68 C 310.07 245.47 305.47 246.85 301.33 246.82 C 301.34 252.89 301.18 258.96 301.50 265.02 C 302.03 265.38 303.10 266.09 303.63 266.44 C 305.48 266.51 307.34 266.62 309.18 266.90 C 304.52 269.70 297.50 270.86 293.68 266.11 C 291.80 259.84 292.78 253.28 292.54 246.84 C 291.20 246.75 289.86 246.66 288.53 246.56 C 288.45 245.98 288.29 244.80 288.21 244.22 C 289.71 244.20 291.22 244.19 292.72 244.18 C 292.74 241.60 292.71 239.02 292.63 236.44 Z" />
<path fill="#616161" opacity="1.00" d=" M 744.69 236.48 C 747.61 236.25 750.55 236.24 753.49 236.36 C 753.44 238.97 753.40 241.59 753.39 244.20 C 756.45 244.16 759.68 243.81 762.52 245.23 C 766.49 245.43 770.43 243.86 774.49 244.22 C 774.30 251.56 774.42 258.90 774.39 266.24 C 775.68 267.19 776.96 268.13 778.26 269.08 C 772.76 269.26 767.26 269.23 761.77 269.11 C 763.03 268.18 764.30 267.25 765.57 266.32 C 765.70 260.41 765.69 254.51 765.56 248.61 C 764.33 247.84 763.04 247.18 761.61 246.94 C 761.05 246.44 760.49 245.94 759.95 245.43 C 758.94 247.89 755.48 246.30 753.43 246.81 C 753.42 252.79 753.25 258.78 753.61 264.75 C 754.10 265.19 755.09 266.07 755.59 266.51 C 757.30 266.51 759.03 266.54 760.76 266.61 C 757.84 269.58 752.99 269.85 749.21 268.71 C 746.20 267.79 745.51 264.61 744.79 261.97 C 744.42 256.93 744.74 251.88 744.66 246.84 C 742.69 246.68 740.73 246.51 738.78 246.35 C 734.92 253.05 732.44 260.39 729.33 267.45 C 727.26 271.72 725.08 276.34 720.86 278.90 C 719.08 280.16 716.77 279.50 714.76 279.62 C 713.69 278.41 712.66 277.18 711.64 275.95 C 712.08 274.93 712.50 273.90 712.93 272.88 C 716.43 269.78 720.06 273.77 721.43 276.94 C 722.80 274.99 724.17 273.02 725.55 271.07 C 724.78 269.32 724.01 267.59 723.19 265.87 C 720.83 260.61 718.23 255.46 715.83 250.22 C 714.82 247.72 712.59 246.11 710.71 244.31 C 716.06 244.39 721.59 243.50 726.82 244.81 C 725.59 245.40 724.37 245.99 723.15 246.57 C 724.36 250.19 726.07 253.63 727.81 257.03 C 728.30 258.15 728.78 259.28 729.26 260.42 C 731.57 256.46 733.36 252.18 734.74 247.81 C 733.73 246.35 732.01 245.61 730.65 244.56 C 735.33 243.81 740.09 244.31 744.82 244.19 C 744.81 241.62 744.77 239.05 744.69 236.48 Z" />
<path fill="#616161" opacity="1.00" d=" M 458.44 236.28 C 461.14 236.27 463.84 236.28 466.54 236.31 C 466.50 238.92 466.48 241.54 466.49 244.17 C 468.66 244.36 471.18 243.61 473.08 245.02 C 474.85 246.24 477.09 245.22 479.05 245.14 C 481.78 244.25 484.69 244.30 487.53 244.15 C 487.44 251.47 487.38 258.79 487.52 266.11 C 488.96 267.17 490.45 268.21 491.99 269.14 C 486.34 268.82 480.46 270.08 474.98 268.47 C 475.77 268.16 477.34 267.54 478.12 267.23 C 478.40 266.67 478.95 265.55 479.22 264.99 C 479.32 260.01 479.66 255.00 479.05 250.05 C 477.05 244.83 470.72 247.06 466.50 246.81 C 466.47 252.74 466.36 258.68 466.65 264.61 C 467.15 265.08 468.14 266.01 468.63 266.48 C 470.51 266.49 472.48 266.33 474.26 267.12 C 469.45 269.85 462.01 270.85 458.61 265.48 C 458.19 259.44 458.21 253.38 458.51 247.34 C 456.81 247.00 455.10 246.73 453.38 246.53 C 453.46 246.06 453.62 245.12 453.71 244.64 C 455.32 244.30 456.94 243.95 458.57 243.61 C 458.51 241.16 458.47 238.72 458.44 236.28 Z" />
<path fill="#616161" opacity="1.00" d=" M 42.85 245.70 C 48.05 243.36 54.73 243.20 59.38 246.86 C 61.90 248.57 61.75 251.95 62.65 254.56 C 56.87 254.73 51.09 254.73 45.30 254.76 C 45.50 259.25 46.55 264.08 50.74 266.52 C 52.26 266.52 53.77 266.52 55.29 266.54 C 57.83 264.75 60.45 263.05 62.59 260.78 C 62.81 263.90 60.11 266.20 57.62 267.57 C 51.54 270.63 43.07 269.66 38.69 264.15 C 36.19 261.08 36.18 256.85 36.80 253.14 C 37.59 249.86 40.25 247.62 42.85 245.70 M 47.82 245.71 C 46.13 247.89 45.69 250.63 45.27 253.29 C 48.10 253.31 50.93 253.30 53.76 253.27 C 53.63 252.44 53.37 250.76 53.24 249.93 C 52.90 248.95 52.58 247.97 52.27 246.99 C 51.81 246.59 50.89 245.78 50.43 245.38 C 49.56 245.49 48.69 245.60 47.82 245.71 Z" />
<path fill="#616161" opacity="1.00" d=" M 66.72 248.93 C 69.99 244.00 76.63 243.71 81.95 244.26 C 85.19 244.33 88.42 246.58 89.16 249.80 C 89.72 255.30 89.03 260.83 89.45 266.34 C 91.02 266.44 92.58 266.57 94.15 266.72 C 90.84 270.74 84.49 269.55 80.89 266.55 C 77.82 268.23 74.33 269.73 70.75 269.12 C 68.64 268.56 67.03 266.99 65.40 265.63 C 65.48 263.93 65.55 262.24 65.61 260.56 C 69.28 255.43 76.15 255.52 81.46 253.21 C 81.39 250.49 80.88 247.79 79.34 245.51 C 77.79 245.54 76.25 245.56 74.71 245.58 C 75.51 248.33 75.56 251.44 73.25 253.48 C 71.78 253.43 70.32 253.39 68.85 253.38 C 67.66 252.17 65.97 250.88 66.72 248.93 M 76.36 258.30 C 73.53 259.96 73.67 264.21 75.56 266.55 C 76.92 266.53 78.29 266.52 79.65 266.53 C 80.05 265.91 80.84 264.68 81.24 264.07 C 81.28 261.33 81.30 258.60 81.26 255.87 C 79.59 256.58 77.84 257.22 76.36 258.30 Z" />
<path fill="#616161" opacity="1.00" d=" M 94.82 245.98 C 98.94 245.14 103.10 244.13 107.34 244.20 C 107.48 244.85 107.75 246.14 107.89 246.78 C 111.08 245.59 114.13 243.62 117.72 244.25 C 118.65 245.35 119.59 246.44 120.55 247.53 C 120.50 249.17 120.45 250.82 120.39 252.47 C 119.73 253.15 119.08 253.85 118.42 254.54 C 115.92 255.09 113.73 254.48 112.28 252.30 C 112.33 250.53 112.37 248.76 112.42 246.99 C 110.19 247.34 108.70 248.93 107.65 250.82 C 107.57 255.78 107.62 260.75 107.58 265.71 C 109.23 267.23 111.27 268.17 113.32 269.05 C 107.67 269.33 102.02 269.12 96.38 269.22 L 96.27 268.15 C 100.39 267.57 99.50 263.04 99.59 260.00 C 99.38 256.06 99.97 251.98 98.99 248.13 C 97.65 247.32 96.21 246.67 94.82 245.98 Z" />
<path fill="#616161" opacity="1.00" d=" M 258.95 245.12 C 262.24 243.99 265.70 244.31 268.97 245.37 C 272.58 244.74 276.42 243.29 279.99 244.95 C 284.49 247.64 286.94 253.08 286.17 258.24 C 285.71 263.02 282.10 267.26 277.58 268.74 C 274.07 269.92 270.43 268.62 266.89 268.25 C 267.36 271.06 267.44 273.91 267.41 276.76 C 269.30 277.56 271.22 278.30 273.16 279.00 C 266.97 281.23 259.90 281.53 253.71 279.18 C 255.30 278.48 256.93 277.87 258.53 277.19 C 258.81 268.14 258.74 259.09 258.58 250.05 C 258.87 247.36 255.47 247.10 253.81 245.89 C 255.52 245.61 257.23 245.37 258.95 245.12 M 267.27 246.81 C 267.40 252.58 267.19 258.36 267.50 264.13 C 268.31 264.88 269.13 265.65 269.94 266.42 C 270.81 266.48 272.55 266.58 273.42 266.63 C 278.04 262.10 278.34 254.32 275.37 248.83 C 273.57 246.07 270.03 246.91 267.27 246.81 Z" />
<path fill="#616161" opacity="1.00" d=" M 327.02 245.89 C 331.17 245.07 335.34 244.23 339.59 244.09 C 339.62 245.04 339.70 246.94 339.74 247.89 C 342.64 246.30 345.40 243.62 349.00 244.13 C 352.33 243.70 354.57 246.53 357.13 248.11 C 358.04 247.27 358.95 246.44 359.86 245.61 C 362.81 244.31 366.24 243.54 369.38 244.62 C 371.14 245.60 372.18 247.40 373.43 248.92 C 373.81 254.44 373.68 259.96 373.55 265.48 C 374.87 266.88 376.39 268.07 377.98 269.16 C 372.63 269.06 367.26 269.57 361.94 268.82 C 363.08 268.23 364.23 267.65 365.39 267.09 C 365.73 260.65 365.62 254.20 365.27 247.77 C 362.77 246.14 359.99 247.16 357.59 248.39 C 355.67 253.85 357.00 259.76 356.59 265.42 C 357.72 266.71 358.89 267.96 360.10 269.19 C 355.07 269.15 350.04 269.32 345.01 269.04 C 346.12 268.35 347.23 267.68 348.36 267.02 C 348.53 261.32 348.85 255.58 348.31 249.90 C 347.93 248.38 346.68 246.47 344.89 246.75 C 342.31 246.42 340.72 248.83 339.65 250.79 C 339.66 255.74 339.71 260.69 339.61 265.64 C 340.79 266.82 341.97 267.99 343.18 269.16 C 338.08 269.17 332.99 269.28 327.90 269.10 C 328.80 268.07 329.95 267.38 331.34 267.03 C 331.92 261.18 331.57 255.29 331.56 249.42 C 330.30 247.94 328.72 246.80 327.02 245.89 Z" />
<path fill="#616161" opacity="1.00" d=" M 378.30 245.83 C 379.91 245.59 381.52 245.39 383.13 245.17 C 385.94 244.38 388.86 244.25 391.76 244.14 C 391.71 250.80 391.55 257.47 391.72 264.14 C 391.48 266.91 394.54 267.94 396.41 269.14 C 390.67 269.16 384.92 269.35 379.18 269.03 C 380.50 267.87 383.23 267.65 383.33 265.53 C 383.59 259.96 383.63 254.38 383.25 248.82 C 381.62 247.79 379.96 246.79 378.30 245.83 Z" />
<path fill="#616161" opacity="1.00" d=" M 398.42 244.16 C 406.40 244.26 414.39 244.07 422.37 244.30 C 417.84 252.00 412.51 259.20 407.22 266.38 C 410.49 266.60 413.76 266.57 417.04 266.38 C 418.57 263.88 420.03 261.31 422.01 259.13 C 422.16 262.47 422.16 265.83 422.17 269.18 C 413.74 269.17 405.31 269.25 396.88 269.14 C 400.83 261.07 406.58 254.02 411.87 246.81 C 409.23 246.79 406.58 246.59 403.95 246.89 C 401.40 247.96 400.53 250.92 398.61 252.75 C 398.42 249.89 398.42 247.03 398.42 244.16 Z" />
<path fill="#616161" opacity="1.00" d=" M 426.15 249.07 C 427.66 246.26 430.96 244.99 433.93 244.35 C 437.98 243.90 442.36 243.74 446.06 245.77 C 446.79 246.56 447.53 247.35 448.29 248.13 C 449.02 253.57 448.51 259.05 448.51 264.51 C 448.95 264.99 449.83 265.94 450.27 266.41 C 451.02 266.48 452.53 266.61 453.28 266.68 C 450.36 271.08 443.05 269.37 439.84 266.05 C 439.34 268.44 436.47 268.25 434.62 268.88 C 431.53 269.83 428.50 268.51 425.70 267.32 C 425.50 264.42 424.27 260.80 426.82 258.54 C 430.80 255.40 436.20 255.52 440.58 253.20 C 440.54 251.30 440.50 249.41 440.46 247.52 C 439.81 246.86 439.16 246.21 438.53 245.57 C 437.13 245.56 435.73 245.56 434.35 245.56 C 434.37 247.62 434.95 249.81 434.24 251.80 C 433.09 253.87 430.56 253.27 428.63 253.57 C 427.36 252.36 425.58 251.10 426.15 249.07 M 433.53 264.43 C 434.15 265.10 434.78 265.77 435.41 266.45 C 436.42 266.48 437.43 266.52 438.45 266.56 C 439.14 265.88 439.83 265.20 440.52 264.53 C 440.57 261.59 440.56 258.65 440.47 255.71 C 436.81 257.20 432.59 259.82 433.53 264.43 Z" />
<path fill="#616161" opacity="1.00" d=" M 501.99 244.94 C 506.63 243.62 511.71 243.74 516.18 245.63 C 522.12 248.73 524.60 256.48 521.33 262.38 C 515.84 271.95 499.25 271.65 494.58 261.45 C 491.72 255.05 495.48 247.23 501.99 244.94 M 503.56 248.89 C 502.43 253.99 502.63 259.19 503.52 264.31 C 504.44 265.45 505.37 266.58 506.31 267.72 C 507.68 267.73 509.06 267.73 510.44 267.73 C 515.04 262.23 514.11 254.25 512.31 247.82 C 511.53 247.09 510.77 246.36 510.02 245.63 C 509.17 245.57 507.46 245.45 506.61 245.40 C 505.56 246.54 504.57 247.72 503.56 248.89 Z" />
<path fill="#616161" opacity="1.00" d=" M 529.98 245.21 C 532.66 244.23 535.54 244.29 538.36 244.32 C 538.45 245.23 538.63 247.05 538.72 247.95 C 541.38 245.80 544.38 243.59 548.04 244.15 C 551.57 243.70 554.47 246.74 555.33 249.90 C 556.04 255.10 555.12 260.37 555.75 265.57 C 556.55 267.40 558.60 268.10 560.14 269.15 C 554.75 269.17 549.37 269.31 543.99 269.08 C 545.09 267.74 547.54 267.07 547.37 264.99 C 547.45 260.27 547.51 255.54 547.24 250.83 C 546.91 249.80 546.61 248.78 546.32 247.76 C 543.81 245.85 540.97 247.35 538.68 248.79 C 538.21 254.62 538.51 260.46 538.47 266.30 C 539.64 267.22 540.81 268.14 541.98 269.08 C 536.59 269.22 531.18 269.34 525.80 269.00 C 527.00 268.30 528.22 267.62 529.46 266.98 C 529.91 260.88 529.71 254.75 529.59 248.65 C 528.21 247.72 526.88 246.73 525.64 245.65 C 527.08 245.50 528.53 245.35 529.98 245.21 Z" />
<path fill="#616161" opacity="1.00" d=" M 672.01 244.98 C 675.88 243.72 680.06 243.93 684.02 244.59 C 686.68 245.11 688.15 247.53 689.48 249.65 C 689.44 255.21 689.27 260.78 689.50 266.34 C 691.08 266.49 692.67 266.66 694.27 266.86 C 692.23 268.63 689.62 269.63 686.90 269.29 C 683.86 269.48 682.45 265.76 679.28 266.18 L 679.63 267.54 C 676.00 268.75 671.69 270.41 668.17 268.06 C 665.42 266.65 665.10 263.25 665.81 260.58 C 667.79 256.83 672.32 256.15 675.99 254.98 C 677.87 254.46 679.71 253.80 681.55 253.14 C 681.49 252.55 681.36 251.38 681.29 250.80 C 680.84 249.25 680.73 247.55 679.98 246.12 C 678.56 245.12 676.59 245.80 674.96 245.55 C 674.87 247.61 674.79 249.68 674.68 251.74 C 674.29 252.14 673.52 252.95 673.13 253.35 C 671.67 253.36 670.21 253.38 668.77 253.41 C 667.73 252.09 666.14 250.84 666.59 248.94 C 667.72 246.85 670.01 245.99 672.01 244.98 M 674.73 260.01 C 673.50 262.22 674.31 264.77 675.54 266.77 C 677.55 266.45 679.49 265.83 681.40 265.12 C 681.37 262.08 681.37 259.03 681.38 255.99 C 678.87 256.71 676.23 257.74 674.73 260.01 Z" />
<path fill="#616161" opacity="1.00" d=" M 789.01 244.99 C 793.05 243.62 797.72 243.64 801.59 245.58 C 802.59 246.56 803.61 247.52 804.66 248.47 C 804.96 250.81 804.44 253.03 802.73 254.71 C 801.04 254.66 799.38 254.62 797.72 254.58 C 795.81 251.78 796.41 248.40 796.67 245.25 C 793.65 245.13 790.64 247.13 790.13 250.21 C 788.24 255.97 789.12 263.12 794.65 266.57 C 795.57 266.56 797.42 266.56 798.34 266.56 C 800.50 265.31 802.46 263.74 804.04 261.80 C 804.47 261.69 805.34 261.49 805.77 261.39 C 803.53 269.34 792.98 271.12 786.47 267.47 C 779.26 264.14 778.28 253.13 784.08 248.05 C 785.47 246.68 787.31 245.93 789.01 244.99 Z" />
<path fill="#616161" opacity="1.00" d=" M 811.80 245.62 C 817.09 242.81 823.03 245.07 828.66 244.45 C 828.70 247.20 828.65 249.95 828.50 252.71 C 826.85 249.92 824.67 247.56 822.21 245.48 C 820.77 245.51 819.33 245.53 817.91 245.56 C 817.11 246.56 816.32 247.56 815.55 248.56 C 815.56 248.97 815.57 249.78 815.58 250.19 C 818.30 252.33 821.70 253.11 824.93 254.16 C 827.72 255.35 830.71 257.69 830.48 261.07 C 830.66 264.69 827.42 267.48 824.23 268.48 C 818.81 270.50 813.17 267.62 807.63 268.69 C 807.63 265.77 807.57 262.85 807.48 259.94 C 807.90 260.10 808.74 260.41 809.16 260.56 C 811.06 263.03 813.00 265.58 815.56 267.42 C 817.39 268.12 819.44 267.63 821.38 267.67 C 822.61 265.90 823.14 263.82 822.54 261.71 C 817.99 259.54 811.89 259.56 809.02 254.81 C 807.33 251.50 809.07 247.76 811.80 245.62 Z" />
<path fill="#616161" opacity="1.00" d=" M 131.02 245.01 C 135.13 243.60 139.74 243.75 143.71 245.53 C 144.88 246.91 146.94 247.98 146.79 250.05 C 147.02 251.77 145.92 253.19 145.19 254.64 C 143.37 254.62 141.55 254.60 139.73 254.57 C 137.95 251.85 138.34 248.62 138.87 245.59 C 138.08 245.57 136.51 245.52 135.72 245.50 C 134.69 246.46 133.67 247.43 132.66 248.41 C 131.66 252.36 130.60 256.59 132.03 260.58 C 132.70 263.16 134.85 264.86 136.70 266.60 C 138.14 266.54 139.57 266.48 141.01 266.43 C 143.28 264.65 145.41 262.70 147.68 260.91 C 147.22 265.69 142.56 268.52 138.19 269.13 C 134.14 269.65 129.88 268.66 126.58 266.24 C 121.75 262.34 120.94 254.47 124.78 249.62 C 126.34 247.47 128.72 246.20 131.02 245.01 Z" />
<path fill="#616161" opacity="1.00" d=" M 188.46 260.56 C 190.75 258.75 193.49 260.51 195.51 261.83 C 195.55 263.64 195.57 265.45 195.56 267.26 C 193.42 268.88 190.08 270.42 187.90 268.03 C 185.21 266.30 185.75 262.00 188.46 260.56 Z" />
<path fill="#616161" opacity="1.00" d=" M 563.50 261.86 C 565.61 260.31 568.77 258.64 571.01 260.94 C 573.31 262.23 572.81 264.92 572.57 267.10 C 571.48 267.80 570.41 268.52 569.34 269.24 C 568.59 269.22 567.10 269.18 566.35 269.16 C 565.40 268.46 564.44 267.77 563.49 267.08 C 563.46 265.34 563.47 263.59 563.50 261.86 Z" />
<path fill="#616161" opacity="1.00" d=" M 836.69 260.87 C 838.61 260.32 840.77 259.20 842.69 260.42 C 843.88 261.32 844.71 262.61 845.71 263.72 C 845.44 267.28 841.75 270.67 838.20 268.75 C 834.88 267.51 835.14 263.43 836.69 260.87 Z" />
</g>
</svg>
