<svg width="901.98279" height="106.62752" xmlns="http://www.w3.org/2000/svg">

 <metadata id="metadata7">image/svg+xmlimage/svg+xml</metadata>
 <g>
  <title>background</title>
  <rect fill="none" id="canvas_background" height="402" width="582" y="-1" x="-1"/>
 </g>
 <g fill="#000000" id="g10">
  <title transform="translate(-72.93671417236328,-40.0000114440918) ">Layer 1</title>
  <g stroke="null" fill="#000000" id="layer1">
   <text transform="matrix(1.9450156688690183,0,0,1.9450156688690183,0,4.999992272982093) " stroke="null" fill="#ffffff" font-family="Avance" xml:space="preserve" x="0.004571" y="45.261957" id="text2985" font-weight="normal" font-style="normal" font-size="18.353739px">
    <tspan stroke="null" fill="#ffffff" id="tspan2987" x="0.004571" y="45.261957" font-weight="bold" font-size="45.884346px">Droid      INDUSTRIES</tspan>
   </text>
   <g stroke="null" fill="#000000" id="g3397" transform="matrix(1.7744723187373281,0,0,1.7744723187373281,536.1395429413103,223.0066504883022) ">
    <path stroke="null" fill="#ffffff" id="path3056-9" d="m-143.604444,-104.793204c-9.66498,0 -17.5,15.67003 -17.5,35l35,0c0,-19.32997 -7.83502,-35 -17.5,-35zm0,4c7.73199,0 14,12.53603 14,28l-28,0c0,-15.46397 6.26801,-28 14,-28z"/>
    <path stroke="null" fill="#ffffff" id="path3301" d="m-157.604444,-88.730704c-6.53213,1.17346 -11.15625,4.05994 -11.15625,7.4375c0,3.37756 4.62412,6.26404 11.15625,7.4375l0,-3.5625c-3.8643,-0.4271 -6.75,-1.99389 -6.75,-3.875c0,-1.88111 2.8857,-3.4479 6.75,-3.875l0,-3.5625z"/>
    <path stroke="null" fill="#ffffff" d="m-129.135694,-88.730704c6.53213,1.17346 11.15625,4.05994 11.15625,7.4375c0,3.37756 -4.62412,6.26404 -11.15625,7.4375l0,-3.5625c3.8643,-0.4271 6.75,-1.99389 6.75,-3.875c0,-1.88111 -2.8857,-3.4479 -6.75,-3.875l0,-3.5625z" id="path3327"/>
    <path stroke="null" fill="#ffffff" id="rect3329" d="m-143.787664,-123.420724c-4.01531,0 -7.25,1.95186 -7.25,4.375l0,16.34375c0,0.29255 0.0663,0.56755 0.15625,0.84375l14.21875,0c0.09,-0.2762 0.125,-0.5512 0.125,-0.84375l0,-16.34375c0,-2.42314 -3.23469,-4.375 -7.25,-4.375zm0,3.8125c1.35327,0 2.4375,2.47905 2.4375,5.5625l0,6.34375c0,3.08344 -1.08423,5.59375 -2.4375,5.59375c-1.35327,0 -2.4375,-2.51031 -2.4375,-5.59375l0,-6.34375c0,-3.08345 1.08423,-5.5625 2.4375,-5.5625z"/>
    <rect stroke="null" fill="#ffffff" y="-84.059295" x="-150.844944" height="5.012247" width="5.012247" id="rect3359"/>
    <rect stroke="null" fill="#ffffff" y="-84.059295" x="-141.782444" height="5.012247" width="5.012247" id="rect3359-7"/>
   </g>
  </g>
 </g>
</svg>