<?xml version="1.0" encoding="UTF-8" standalone="no"?>
<!-- Created with Inkscape (http://www.inkscape.org/) -->

<svg
   xmlns:dc="http://purl.org/dc/elements/1.1/"
   xmlns:cc="http://creativecommons.org/ns#"
   xmlns:rdf="http://www.w3.org/1999/02/22-rdf-syntax-ns#"
   xmlns:svg="http://www.w3.org/2000/svg"
   xmlns="http://www.w3.org/2000/svg"
   xmlns:sodipodi="http://sodipodi.sourceforge.net/DTD/sodipodi-0.dtd"
   xmlns:inkscape="http://www.inkscape.org/namespaces/inkscape"
   width="931.98279"
   height="136.62752"
   id="svg2"
   version="1.1"
   inkscape:version="0.48.4 r9939"
   sodipodi:docname="logo.svg">
  <defs
     id="defs4" />
  <sodipodi:namedview
     id="base"
     pagecolor="#ffffff"
     bordercolor="#666666"
     borderopacity="1.0"
     inkscape:pageopacity="0.0"
     inkscape:pageshadow="2"
     inkscape:zoom="1.4142136"
     inkscape:cx="170.61429"
     inkscape:cy="79.632878"
     inkscape:document-units="px"
     inkscape:current-layer="layer1"
     showgrid="false"
     inkscape:window-width="2560"
     inkscape:window-height="1617"
     inkscape:window-x="0"
     inkscape:window-y="61"
     inkscape:window-maximized="1"
     fit-margin-top="15"
     fit-margin-left="15"
     fit-margin-right="15"
     fit-margin-bottom="15"
     showborder="true" />
  <metadata
     id="metadata7">
    <rdf:RDF>
      <cc:Work
         rdf:about="">
        <dc:format>image/svg+xml</dc:format>
        <dc:type
           rdf:resource="http://purl.org/dc/dcmitype/StillImage" />
        <dc:title></dc:title>
      </cc:Work>
    </rdf:RDF>
  </metadata>
  <g
     inkscape:label="Layer 1"
     inkscape:groupmode="layer"
     id="layer1"
     transform="translate(-87.6,-290.7633)">
    <text
       xml:space="preserve"
       style="font-size:40px;font-style:normal;font-variant:normal;font-weight:normal;font-stretch:normal;line-height:125%;letter-spacing:0px;word-spacing:0px;fill:#000000;fill-opacity:1;stroke:none;font-family:Avance;-inkscape-font-specification:Avance"
       x="100"
       y="406.64789"
       id="text2985"
       sodipodi:linespacing="125%"><tspan
         sodipodi:role="line"
         id="tspan2987"
         x="100"
         y="406.64789"
         style="font-size:100px;font-weight:bold;fill:#000000;-inkscape-font-specification:Avance Bold">Droid      INDUSTRIES</tspan></text>
    <g
       id="g3397"
       style="fill:#000000"
       transform="matrix(1.9882985,0,0,1.9882985,3.4360391,139.82566)">
      <path
         inkscape:connector-curvature="0"
         id="path3056-9"
         d="m 202.21447,102.08463 c -9.66498,0 -17.5,15.67003 -17.5,35 l 35,0 c 0,-19.32997 -7.83502,-35 -17.5,-35 z m 0,4 c 7.73199,0 14,12.53603 14,28 l -28,0 c 0,-15.46397 6.26801,-28 14,-28 z"
         style="fill:#000000;fill-opacity:1;stroke:none" />
      <path
         inkscape:connector-curvature="0"
         id="path3301"
         d="m 188.21447,118.14713 c -6.53213,1.17346 -11.15625,4.05994 -11.15625,7.4375 0,3.37756 4.62412,6.26404 11.15625,7.4375 l 0,-3.5625 c -3.8643,-0.4271 -6.75,-1.99389 -6.75,-3.875 0,-1.88111 2.8857,-3.4479 6.75,-3.875 l 0,-3.5625 z"
         style="fill:#000000;fill-opacity:1;stroke:none" />
      <path
         style="fill:#000000;fill-opacity:1;stroke:none"
         d="m 216.68322,118.14713 c 6.53213,1.17346 11.15625,4.05994 11.15625,7.4375 0,3.37756 -4.62412,6.26404 -11.15625,7.4375 l 0,-3.5625 c 3.8643,-0.4271 6.75,-1.99389 6.75,-3.875 0,-1.88111 -2.8857,-3.4479 -6.75,-3.875 l 0,-3.5625 z"
         id="path3327"
         inkscape:connector-curvature="0" />
      <path
         inkscape:connector-curvature="0"
         id="rect3329"
         d="m 202.03125,83.457107 c -4.01531,0 -7.25,1.951866 -7.25,4.375 l 0,16.343753 c 0,0.29255 0.0663,0.56755 0.15625,0.84375 l 14.21875,0 c 0.09,-0.2762 0.125,-0.5512 0.125,-0.84375 l 0,-16.343753 c 0,-2.423134 -3.23469,-4.375 -7.25,-4.375 z m 0,3.8125 c 1.35327,0 2.4375,2.479056 2.4375,5.5625 l 0,6.34375 c 0,3.083443 -1.08423,5.593753 -2.4375,5.593753 -1.35327,0 -2.4375,-2.51031 -2.4375,-5.593753 l 0,-6.34375 c 0,-3.083444 1.08423,-5.5625 2.4375,-5.5625 z"
         style="fill:#000000;fill-opacity:1;stroke:none" />
      <rect
         ry="0"
         rx="0"
         y="122.81854"
         x="194.97397"
         height="5.0122471"
         width="5.0122471"
         id="rect3359"
         style="fill:#000000;fill-opacity:1;stroke:none" />
      <rect
         ry="0"
         rx="0"
         y="122.81854"
         x="204.03647"
         height="5.0122471"
         width="5.0122471"
         id="rect3359-7"
         style="fill:#000000;fill-opacity:1;stroke:none" />
    </g>
  </g>
</svg>
